DancingScript-Bold.ufo
<glyph name="quotedbl" format="2">
  <advance width="270"/>
  <unicode hex="0022"/>
  <outline>
    <contour>
      <point x="179" y="576" type="curve"/>
      <point x="202" y="626"/>
      <point x="215" y="654"/>
      <point x="245" y="683" type="curve"/>
      <point x="245" y="707"/>
      <point x="231" y="722"/>
      <point x="214" y="722" type="curve" smooth="yes"/>
      <point x="181" y="722"/>
      <point x="151" y="659"/>
      <point x="151" y="620" type="curve" smooth="yes"/>
      <point x="151" y="602"/>
      <point x="159" y="586"/>
    </contour>
    <contour>
      <point x="293" y="576" type="curve"/>
      <point x="317" y="625"/>
      <point x="328" y="654"/>
      <point x="359" y="683" type="curve"/>
      <point x="359" y="707"/>
      <point x="346" y="722"/>
      <point x="328" y="722" type="curve" smooth="yes"/>
      <point x="293" y="722"/>
      <point x="266" y="656"/>
      <point x="266" y="617" type="curve" smooth="yes"/>
      <point x="266" y="600"/>
      <point x="275" y="585"/>
    </contour>
  </outline>
</glyph>
<glyph name="quotesingle" format="2">
  <advance width="156"/>
  <unicode hex="0027"/>
  <outline>
    <contour>
      <point x="179" y="576" type="curve"/>
      <point x="189" y="598" type="line" smooth="yes"/>
      <point x="202" y="626"/>
      <point x="215" y="654"/>
      <point x="245" y="683" type="curve"/>
      <point x="246" y="689" type="line"/>
      <point x="246" y="707"/>
      <point x="230" y="722"/>
      <point x="214" y="722" type="curve" smooth="yes"/>
      <point x="181" y="722"/>
      <point x="151" y="659"/>
      <point x="151" y="620" type="curve" smooth="yes"/>
      <point x="151" y="602"/>
      <point x="159" y="586"/>
    </contour>
  </outline>
</glyph>
<glyph name="parenright" format="2">
  <advance width="315"/>
  <unicode hex="0029"/>
  <outline>
    <contour>
      <point x="0" y="-87" type="curve" smooth="yes"/>
      <point x="80" y="-87"/>
      <point x="295" y="133"/>
      <point x="295" y="433" type="curve" smooth="yes"/>
      <point x="295" y="603"/>
      <point x="205" y="708"/>
      <point x="139" y="725" type="curve"/>
      <point x="215" y="627"/>
      <point x="228" y="540"/>
      <point x="228" y="454" type="curve" smooth="yes"/>
      <point x="228" y="219"/>
      <point x="111" y="43"/>
      <point x="-34" y="-53" type="curve"/>
      <point x="-27" y="-65"/>
      <point x="-12" y="-87"/>
    </contour>
  </outline>
</glyph>
<glyph name="asterisk" format="2">
  <advance width="416"/>
  <unicode hex="002A"/>
  <outline>
    <contour>
      <point x="390" y="404" type="curve"/>
      <point x="388" y="481"/>
      <point x="365" y="510"/>
      <point x="340" y="544" type="curve"/>
      <point x="475" y="555" type="line"/>
      <point x="430" y="591"/>
      <point x="382" y="595"/>
      <point x="330" y="595" type="curve"/>
      <point x="350" y="639"/>
      <point x="377" y="681"/>
      <point x="394" y="731" type="curve"/>
      <point x="341" y="719"/>
      <point x="307" y="669"/>
      <point x="288" y="611" type="curve"/>
      <point x="265" y="642"/>
      <point x="251" y="674"/>
      <point x="218" y="733" type="curve"/>
      <point x="218" y="725"/>
      <point x="197" y="718"/>
      <point x="197" y="696" type="curve" smooth="yes"/>
      <point x="197" y="672"/>
      <point x="215" y="634"/>
      <point x="242" y="594" type="curve"/>
      <point x="204" y="591"/>
      <point x="157" y="590"/>
      <point x="127" y="589" type="curve"/>
      <point x="139" y="547"/>
      <point x="191" y="543"/>
      <point x="243" y="543" type="curve"/>
      <point x="221" y="502"/>
      <point x="203" y="459"/>
      <point x="171" y="415" type="curve"/>
      <point x="224" y="418"/>
      <point x="257" y="469"/>
      <point x="291" y="531" type="curve"/>
      <point x="324" y="484"/>
      <point x="361" y="435"/>
    </contour>
  </outline>
</glyph>
<glyph name="plus" format="2">
  <advance width="441"/>
  <unicode hex="002B"/>
  <outline>
    <contour>
      <point x="171" y="-7" type="curve"/>
      <point x="220" y="-1"/>
      <point x="230" y="66"/>
      <point x="231" y="148" type="curve"/>
      <point x="282" y="148" type="line" smooth="yes"/>
      <point x="312" y="148"/>
      <point x="360" y="155"/>
      <point x="408" y="189" type="curve"/>
      <point x="372" y="192"/>
      <point x="298" y="198"/>
      <point x="230" y="199" type="curve"/>
      <point x="228" y="260"/>
      <point x="220" y="324"/>
      <point x="216" y="356" type="curve"/>
      <point x="183" y="306"/>
      <point x="177" y="273"/>
      <point x="177" y="240" type="curve" smooth="yes"/>
      <point x="177" y="199" type="line"/>
      <point x="93" y="197"/>
      <point x="29" y="183"/>
      <point x="13" y="136" type="curve"/>
      <point x="82" y="146"/>
      <point x="119" y="148"/>
      <point x="179" y="148" type="curve"/>
      <point x="179" y="90"/>
      <point x="178" y="50"/>
    </contour>
  </outline>
</glyph>
<glyph name="comma" format="2">
  <advance width="216"/>
  <unicode hex="002C"/>
  <outline>
    <contour>
      <point x="32" y="-88" type="curve"/>
      <point x="56" y="-39"/>
      <point x="68" y="-10"/>
      <point x="100" y="26" type="curve"/>
      <point x="100" y="43"/>
      <point x="85" y="59"/>
      <point x="68" y="59" type="curve" smooth="yes"/>
      <point x="35" y="59"/>
      <point x="5" y="-4"/>
      <point x="5" y="-44" type="curve" smooth="yes"/>
      <point x="5" y="-61"/>
      <point x="14" y="-77"/>
    </contour>
  </outline>
</glyph>
<glyph name="period" format="2">
  <advance width="242"/>
  <unicode hex="002E"/>
  <outline>
    <contour>
      <point x="72" y="-10" type="curve" smooth="yes"/>
      <point x="106" y="-10"/>
      <point x="124" y="34"/>
      <point x="124" y="50" type="curve" smooth="yes"/>
      <point x="124" y="74"/>
      <point x="106" y="81"/>
      <point x="91" y="81" type="curve" smooth="yes"/>
      <point x="64" y="81"/>
      <point x="28" y="50"/>
      <point x="28" y="28" type="curve" smooth="yes"/>
      <point x="28" y="10"/>
      <point x="40" y="-10"/>
    </contour>
  </outline>
</glyph>
<glyph name="slash" format="2">
  <advance width="355"/>
  <unicode hex="002F"/>
  <outline>
    <contour>
      <point x="-63" y="-162" type="curve"/>
      <point x="8" y="-162"/>
      <point x="89" y="-94"/>
      <point x="140" y="24" type="curve" smooth="yes"/>
      <point x="198" y="159"/>
      <point x="414" y="663"/>
      <point x="435" y="719" type="curve"/>
      <point x="385" y="719"/>
      <point x="337" y="693"/>
      <point x="329" y="671" type="curve" smooth="yes"/>
      <point x="259" y="491"/>
      <point x="45" y="-58"/>
    </contour>
  </outline>
</glyph>
<glyph name="five" format="2">
  <advance width="513"/>
  <unicode hex="0035"/>
  <outline>
    <contour>
      <point x="195" y="-87" type="curve" smooth="yes"/>
      <point x="361" y="-87"/>
      <point x="472" y="28"/>
      <point x="472" y="169" type="curve" smooth="yes"/>
      <point x="472" y="283"/>
      <point x="400" y="365"/>
      <point x="256" y="365" type="curve" smooth="yes"/>
      <point x="228" y="365"/>
      <point x="201" y="362"/>
      <point x="174" y="357" type="curve"/>
      <point x="188" y="397"/>
      <point x="219" y="562"/>
      <point x="249" y="607" type="curve" smooth="yes"/>
      <point x="253" y="614"/>
      <point x="258" y="618"/>
      <point x="263" y="618" type="curve" smooth="yes"/>
      <point x="290" y="618"/>
      <point x="327" y="606"/>
      <point x="377" y="606" type="curve" smooth="yes"/>
      <point x="439" y="606"/>
      <point x="511" y="625"/>
      <point x="511" y="683" type="curve" smooth="yes"/>
      <point x="511" y="695"/>
      <point x="508" y="705"/>
      <point x="504" y="721" type="curve"/>
      <point x="446" y="710"/>
      <point x="395" y="701"/>
      <point x="338" y="701" type="curve" smooth="yes"/>
      <point x="306" y="701"/>
      <point x="268" y="704"/>
      <point x="223" y="715" type="curve"/>
      <point x="204" y="643"/>
      <point x="134" y="421"/>
      <point x="118" y="310" type="curve"/>
      <point x="160" y="318"/>
      <point x="198" y="323"/>
      <point x="223" y="323" type="curve" smooth="yes"/>
      <point x="320" y="323"/>
      <point x="359" y="251"/>
      <point x="359" y="171" type="curve" smooth="yes"/>
      <point x="359" y="72"/>
      <point x="298" y="-41"/>
      <point x="194" y="-41" type="curve" smooth="yes"/>
      <point x="121" y="-41"/>
      <point x="91" y="15"/>
      <point x="91" y="69" type="curve" smooth="yes"/>
      <point x="91" y="109"/>
      <point x="108" y="149"/>
      <point x="133" y="169" type="curve"/>
      <point x="112" y="173"/>
      <point x="104" y="173"/>
      <point x="97" y="173" type="curve" smooth="yes"/>
      <point x="37" y="173"/>
      <point x="9" y="113"/>
      <point x="9" y="61" type="curve" smooth="yes"/>
      <point x="9" y="-5"/>
      <point x="55" y="-87"/>
    </contour>
  </outline>
</glyph>
<glyph name="seven" format="2">
  <advance width="439"/>
  <unicode hex="0037"/>
  <outline>
    <contour>
      <point x="125" y="-87" type="curve" smooth="yes"/>
      <point x="145" y="-87"/>
      <point x="190" y="-70"/>
      <point x="215" y="-18" type="curve"/>
      <point x="202" y="-9"/>
      <point x="199" y="6"/>
      <point x="199" y="24" type="curve" smooth="yes"/>
      <point x="199" y="93"/>
      <point x="249" y="210"/>
      <point x="285" y="292" type="curve"/>
      <point x="312" y="292"/>
      <point x="337" y="292"/>
      <point x="360" y="292" type="curve"/>
      <point x="396" y="292"/>
      <point x="426" y="317"/>
      <point x="458" y="360" type="curve"/>
      <point x="436" y="354"/>
      <point x="414" y="353"/>
      <point x="393" y="353" type="curve" smooth="yes"/>
      <point x="366" y="353"/>
      <point x="341" y="354"/>
      <point x="315" y="357" type="curve"/>
      <point x="369" y="472"/>
      <point x="418" y="556"/>
      <point x="479" y="643" type="curve" smooth="yes"/>
      <point x="498" y="670"/>
      <point x="518" y="697"/>
      <point x="540" y="725" type="curve"/>
      <point x="484" y="707"/>
      <point x="411" y="699"/>
      <point x="346" y="699" type="curve" smooth="yes"/>
      <point x="277" y="699"/>
      <point x="214" y="708"/>
      <point x="152" y="719" type="curve"/>
      <point x="141" y="701"/>
      <point x="135" y="684"/>
      <point x="135" y="670" type="curve" smooth="yes"/>
      <point x="135" y="639"/>
      <point x="163" y="616"/>
      <point x="254" y="616" type="curve" smooth="yes"/>
      <point x="301" y="616"/>
      <point x="357" y="622"/>
      <point x="405" y="622" type="curve"/>
      <point x="334" y="508"/>
      <point x="282" y="415"/>
      <point x="247" y="361" type="curve"/>
      <point x="238" y="361"/>
      <point x="229" y="361"/>
      <point x="220" y="361" type="curve" smooth="yes"/>
      <point x="138" y="358"/>
      <point x="69" y="343"/>
      <point x="68" y="282" type="curve"/>
      <point x="111" y="287"/>
      <point x="171" y="291"/>
      <point x="210" y="292" type="curve"/>
      <point x="133" y="138"/>
      <point x="82" y="19"/>
      <point x="82" y="-35" type="curve" smooth="yes"/>
      <point x="82" y="-70"/>
      <point x="104" y="-87"/>
    </contour>
  </outline>
</glyph>
<glyph name="eight" format="2">
  <advance width="561"/>
  <unicode hex="0038"/>
  <outline>
    <contour>
      <point x="236" y="-87" type="curve" smooth="yes"/>
      <point x="370" y="-87"/>
      <point x="497" y="-4"/>
      <point x="497" y="125" type="curve" smooth="yes"/>
      <point x="497" y="216"/>
      <point x="434" y="279"/>
      <point x="364" y="348" type="curve"/>
      <point x="443" y="408"/>
      <point x="505" y="474"/>
      <point x="505" y="569" type="curve" smooth="yes"/>
      <point x="505" y="669"/>
      <point x="435" y="719"/>
      <point x="338" y="719" type="curve" smooth="yes"/>
      <point x="243" y="719"/>
      <point x="142" y="671"/>
      <point x="142" y="552" type="curve" smooth="yes"/>
      <point x="142" y="461"/>
      <point x="200" y="397"/>
      <point x="259" y="337" type="curve"/>
      <point x="163" y="264"/>
      <point x="43" y="200"/>
      <point x="43" y="84" type="curve" smooth="yes"/>
      <point x="43" y="11"/>
      <point x="90" y="-87"/>
    </contour>
    <contour>
      <point x="245" y="-34" type="curve" smooth="yes"/>
      <point x="183" y="-34"/>
      <point x="120" y="10"/>
      <point x="120" y="85" type="curve" smooth="yes"/>
      <point x="120" y="175"/>
      <point x="209" y="238"/>
      <point x="297" y="299" type="curve"/>
      <point x="352" y="243"/>
      <point x="398" y="190"/>
      <point x="398" y="120" type="curve" smooth="yes"/>
      <point x="398" y="27"/>
      <point x="317" y="-34"/>
    </contour>
    <contour>
      <point x="327" y="387" type="curve"/>
      <point x="276" y="441"/>
      <point x="236" y="495"/>
      <point x="236" y="564" type="curve" smooth="yes"/>
      <point x="236" y="648"/>
      <point x="296" y="678"/>
      <point x="340" y="678" type="curve" smooth="yes"/>
      <point x="390" y="678"/>
      <point x="432" y="641"/>
      <point x="432" y="568" type="curve" smooth="yes"/>
      <point x="432" y="493"/>
      <point x="388" y="438"/>
    </contour>
  </outline>
</glyph>
<glyph name="nine" format="2">
  <advance width="598"/>
  <unicode hex="0039"/>
  <outline>
    <contour>
      <point x="215" y="-87" type="curve" smooth="yes"/>
      <point x="450" y="-87"/>
      <point x="590" y="217"/>
      <point x="590" y="441" type="curve" smooth="yes"/>
      <point x="590" y="591"/>
      <point x="528" y="720"/>
      <point x="357" y="720" type="curve" smooth="yes"/>
      <point x="199" y="720"/>
      <point x="96" y="612"/>
      <point x="96" y="460" type="curve" smooth="yes"/>
      <point x="96" y="323"/>
      <point x="188" y="253"/>
      <point x="301" y="253" type="curve" smooth="yes"/>
      <point x="361" y="253"/>
      <point x="421" y="272"/>
      <point x="465" y="306" type="curve"/>
      <point x="430" y="135"/>
      <point x="341" y="-50"/>
      <point x="217" y="-50" type="curve" smooth="yes"/>
      <point x="181" y="-50"/>
      <point x="169" y="-24"/>
      <point x="165" y="4" type="curve" smooth="yes"/>
      <point x="163" y="15"/>
      <point x="163" y="26"/>
      <point x="163" y="36" type="curve"/>
      <point x="116" y="22"/>
      <point x="105" y="0"/>
      <point x="105" y="-21" type="curve" smooth="yes"/>
      <point x="105" y="-66"/>
      <point x="153" y="-87"/>
    </contour>
    <contour>
      <point x="341" y="301" type="curve" smooth="yes"/>
      <point x="256" y="301"/>
      <point x="199" y="352"/>
      <point x="199" y="457" type="curve" smooth="yes"/>
      <point x="199" y="564"/>
      <point x="256" y="674"/>
      <point x="353" y="674" type="curve" smooth="yes"/>
      <point x="455" y="674"/>
      <point x="483" y="552"/>
      <point x="483" y="471" type="curve" smooth="yes"/>
      <point x="483" y="368"/>
      <point x="438" y="301"/>
    </contour>
  </outline>
</glyph>
<glyph name="less" format="2">
  <advance width="328"/>
  <unicode hex="003C"/>
  <outline>
    <contour>
      <point x="202" y="44" type="curve" smooth="yes"/>
      <point x="218" y="44"/>
      <point x="233" y="58"/>
      <point x="244" y="70" type="curve"/>
      <point x="150" y="104"/>
      <point x="119" y="121"/>
      <point x="80" y="147" type="curve"/>
      <point x="149" y="182"/>
      <point x="239" y="233"/>
      <point x="239" y="287" type="curve" smooth="yes"/>
      <point x="239" y="303"/>
      <point x="231" y="318"/>
      <point x="225" y="323" type="curve"/>
      <point x="179" y="258"/>
      <point x="103" y="191"/>
      <point x="30" y="165" type="curve"/>
      <point x="43" y="123"/>
      <point x="152" y="44"/>
    </contour>
  </outline>
</glyph>
<glyph name="A" format="2">
  <advance width="631"/>
  <unicode hex="0041"/>
  <anchor x="518" y="0" name="ogonek"/>
  <outline>
    <contour>
      <point x="46" y="-87" type="curve"/>
      <point x="97" y="31"/>
      <point x="158" y="156"/>
      <point x="222" y="269" type="curve"/>
      <point x="263" y="264"/>
      <point x="306" y="259"/>
      <point x="365" y="250" type="curve"/>
      <point x="355" y="192"/>
      <point x="352" y="157"/>
      <point x="352" y="126" type="curve" smooth="yes"/>
      <point x="352" y="30"/>
      <point x="376" y="-29"/>
      <point x="440" y="-29" type="curve" smooth="yes"/>
      <point x="514" y="-29"/>
      <point x="584" y="49"/>
      <point x="626" y="159" type="curve"/>
      <point x="608" y="178" type="line"/>
      <point x="552" y="72"/>
      <point x="506" y="29"/>
      <point x="475" y="29" type="curve" smooth="yes"/>
      <point x="450" y="29"/>
      <point x="440" y="55"/>
      <point x="440" y="108" type="curve" smooth="yes"/>
      <point x="440" y="279"/>
      <point x="555" y="652"/>
      <point x="596" y="683" type="curve"/>
      <point x="571" y="706"/>
      <point x="547" y="722"/>
      <point x="528" y="722" type="curve" smooth="yes"/>
      <point x="514" y="722"/>
      <point x="489" y="705"/>
      <point x="458" y="674" type="curve" smooth="yes"/>
      <point x="390" y="608"/>
      <point x="290" y="482"/>
      <point x="190" y="338" type="curve"/>
      <point x="163" y="341"/>
      <point x="139" y="344"/>
      <point x="116" y="344" type="curve" smooth="yes"/>
      <point x="61" y="344"/>
      <point x="18" y="327"/>
      <point x="0" y="279" type="curve"/>
      <point x="16" y="279" type="line" smooth="yes"/>
      <point x="75" y="279"/>
      <point x="106" y="278"/>
      <point x="147" y="275" type="curve"/>
      <point x="63" y="146"/>
      <point x="0" y="28"/>
      <point x="0" y="-25" type="curve" smooth="yes"/>
      <point x="0" y="-41"/>
      <point x="6" y="-66"/>
    </contour>
    <contour>
      <point x="375" y="299" type="curve"/>
      <point x="334" y="308"/>
      <point x="294" y="318"/>
      <point x="254" y="326" type="curve"/>
      <point x="337" y="469"/>
      <point x="420" y="586"/>
      <point x="481" y="634" type="curve"/>
      <point x="443" y="545"/>
      <point x="400" y="417"/>
    </contour>
  </outline>
</glyph>
<glyph name="B" format="2">
  <advance width="650"/>
  <unicode hex="0042"/>
  <outline>
    <contour>
      <point x="165" y="-87" type="curve" smooth="yes"/>
      <point x="326" y="-87"/>
      <point x="617" y="11"/>
      <point x="617" y="207" type="curve" smooth="yes"/>
      <point x="617" y="267"/>
      <point x="568" y="346"/>
      <point x="402" y="368" type="curve"/>
      <point x="499" y="391"/>
      <point x="611" y="443"/>
      <point x="611" y="557" type="curve" smooth="yes"/>
      <point x="611" y="700"/>
      <point x="455" y="720"/>
      <point x="360" y="720" type="curve" smooth="yes"/>
      <point x="250" y="720"/>
      <point x="180" y="693"/>
      <point x="108" y="664" type="curve"/>
      <point x="108" y="650"/>
      <point x="135" y="625"/>
      <point x="148" y="625" type="curve" smooth="yes"/>
      <point x="164" y="625"/>
      <point x="198" y="658"/>
      <point x="278" y="676" type="curve"/>
      <point x="190" y="505"/>
      <point x="96" y="199"/>
      <point x="75" y="137" type="curve" smooth="yes"/>
      <point x="66.29893629058273" y="110.8968088717482"/>
      <point x="61" y="91"/>
      <point x="61" y="79" type="curve" smooth="yes"/>
      <point x="61" y="48"/>
      <point x="95" y="24"/>
      <point x="135" y="24" type="curve"/>
      <point x="165" y="128"/>
      <point x="192" y="239"/>
      <point x="222" y="340" type="curve"/>
      <point x="244" y="340"/>
      <point x="271" y="341"/>
      <point x="296" y="341" type="curve" smooth="yes"/>
      <point x="414" y="341"/>
      <point x="555" y="326"/>
      <point x="555" y="222" type="curve" smooth="yes"/>
      <point x="555" y="108"/>
      <point x="385" y="0"/>
      <point x="150" y="0" type="curve" smooth="yes"/>
      <point x="81" y="0"/>
      <point x="64" y="9"/>
      <point x="52" y="9" type="curve" smooth="yes"/>
      <point x="45" y="9"/>
      <point x="41" y="6"/>
      <point x="41" y="-1" type="curve" smooth="yes"/>
      <point x="42" y="-62"/>
      <point x="84" y="-87"/>
    </contour>
    <contour>
      <point x="232" y="378" type="curve"/>
      <point x="265" y="489"/>
      <point x="301" y="596"/>
      <point x="347" y="685" type="curve"/>
      <point x="348" y="685"/>
      <point x="349" y="685"/>
      <point x="351" y="685" type="curve" smooth="yes"/>
      <point x="446" y="684"/>
      <point x="535" y="661"/>
      <point x="535" y="565" type="curve" smooth="yes"/>
      <point x="535" y="430"/>
      <point x="382" y="384"/>
    </contour>
  </outline>
</glyph>
<glyph name="C" format="2">
  <advance width="570"/>
  <unicode hex="0043"/>
  <outline>
    <contour>
      <point x="250" y="-87" type="curve" smooth="yes"/>
      <point x="392" y="-87"/>
      <point x="507" y="24"/>
      <point x="577" y="158" type="curve"/>
      <point x="551" y="175" type="line"/>
      <point x="497" y="62"/>
      <point x="382" y="-39"/>
      <point x="274" y="-39" type="curve" smooth="yes"/>
      <point x="169" y="-39"/>
      <point x="129" y="55"/>
      <point x="129" y="151" type="curve" smooth="yes"/>
      <point x="129" y="369"/>
      <point x="315" y="675"/>
      <point x="461" y="675" type="curve" smooth="yes"/>
      <point x="494" y="675"/>
      <point x="506" y="660"/>
      <point x="506" y="636" type="curve" smooth="yes"/>
      <point x="506" y="582"/>
      <point x="438" y="487"/>
      <point x="397" y="442" type="curve"/>
      <point x="409" y="419"/>
      <point x="424" y="411"/>
      <point x="438" y="411" type="curve" smooth="yes"/>
      <point x="499" y="411"/>
      <point x="561" y="548"/>
      <point x="561" y="628" type="curve" smooth="yes"/>
      <point x="561" y="694"/>
      <point x="516" y="719"/>
      <point x="457" y="719" type="curve" smooth="yes"/>
      <point x="252" y="719"/>
      <point x="32" y="423"/>
      <point x="32" y="160" type="curve" smooth="yes"/>
      <point x="32" y="37"/>
      <point x="97" y="-87"/>
    </contour>
  </outline>
</glyph>
<glyph name="E" format="2">
  <advance width="533"/>
  <unicode hex="0045"/>
  <anchor x="385" y="-28" name="ogonek"/>
  <outline>
    <contour>
      <point x="209" y="-87" type="curve" smooth="yes"/>
      <point x="352" y="-87"/>
      <point x="466" y="19"/>
      <point x="540" y="158" type="curve"/>
      <point x="513" y="175" type="line"/>
      <point x="459" y="62"/>
      <point x="345" y="-42"/>
      <point x="236" y="-42" type="curve" smooth="yes"/>
      <point x="140" y="-42"/>
      <point x="106" y="38"/>
      <point x="106" y="99" type="curve" smooth="yes"/>
      <point x="106" y="199"/>
      <point x="197" y="316"/>
      <point x="342" y="339" type="curve"/>
      <point x="286" y="382"/>
      <point x="268" y="444"/>
      <point x="268" y="501" type="curve" smooth="yes"/>
      <point x="268" y="591"/>
      <point x="314" y="686"/>
      <point x="405" y="686" type="curve" smooth="yes"/>
      <point x="448" y="686"/>
      <point x="477" y="665"/>
      <point x="477" y="625" type="curve" smooth="yes"/>
      <point x="477" y="577"/>
      <point x="438" y="531"/>
      <point x="389" y="491" type="curve"/>
      <point x="401" y="470"/>
      <point x="418" y="450"/>
      <point x="437" y="450" type="curve" smooth="yes"/>
      <point x="474" y="450"/>
      <point x="523" y="526"/>
      <point x="523" y="604" type="curve" smooth="yes"/>
      <point x="523" y="679"/>
      <point x="477" y="719"/>
      <point x="396" y="719" type="curve" smooth="yes"/>
      <point x="266" y="719"/>
      <point x="179" y="616"/>
      <point x="179" y="510" type="curve" smooth="yes"/>
      <point x="179" y="455"/>
      <point x="203" y="401"/>
      <point x="251" y="359" type="curve"/>
      <point x="104" y="338"/>
      <point x="-4" y="219"/>
      <point x="-4" y="101" type="curve" smooth="yes"/>
      <point x="-4" y="-3"/>
      <point x="81" y="-87"/>
    </contour>
  </outline>
</glyph>
<glyph name="G" format="2">
  <advance width="585"/>
  <unicode hex="0047"/>
  <outline>
    <contour>
      <point x="238" y="-87" type="curve" smooth="yes"/>
      <point x="314" y="-87"/>
      <point x="374" y="-46"/>
      <point x="421" y="11" type="curve"/>
      <point x="420" y="4"/>
      <point x="420" y="-2"/>
      <point x="420" y="-9" type="curve" smooth="yes"/>
      <point x="420" y="-43"/>
      <point x="427" y="-86"/>
      <point x="488" y="-93" type="curve"/>
      <point x="487" y="-52"/>
      <point x="485" y="-26"/>
      <point x="485" y="1" type="curve" smooth="yes"/>
      <point x="485" y="60"/>
      <point x="493" y="97"/>
      <point x="542" y="243" type="curve"/>
      <point x="552" y="274" type="line"/>
      <point x="491" y="287"/>
      <point x="427" y="322"/>
      <point x="368" y="322" type="curve" smooth="yes"/>
      <point x="325" y="322"/>
      <point x="300" y="301"/>
      <point x="288" y="254" type="curve"/>
      <point x="312" y="255"/>
      <point x="333" y="256"/>
      <point x="354" y="256" type="curve" smooth="yes"/>
      <point x="393" y="256"/>
      <point x="427" y="253"/>
      <point x="461" y="246" type="curve"/>
      <point x="450" y="119"/>
      <point x="372" y="-39"/>
      <point x="262" y="-39" type="curve" smooth="yes"/>
      <point x="188" y="-39"/>
      <point x="128" y="32"/>
      <point x="128" y="153" type="curve" smooth="yes"/>
      <point x="128" y="365"/>
      <point x="312" y="675"/>
      <point x="463" y="675" type="curve" smooth="yes"/>
      <point x="501" y="675"/>
      <point x="517" y="655"/>
      <point x="517" y="628" type="curve" smooth="yes"/>
      <point x="517" y="579"/>
      <point x="466" y="503"/>
      <point x="437" y="483" type="curve"/>
      <point x="450" y="458"/>
      <point x="463" y="450"/>
      <point x="479" y="450" type="curve" smooth="yes"/>
      <point x="531" y="450"/>
      <point x="573" y="530"/>
      <point x="573" y="601" type="curve" smooth="yes"/>
      <point x="573" y="663"/>
      <point x="541" y="719"/>
      <point x="454" y="719" type="curve" smooth="yes"/>
      <point x="252" y="719"/>
      <point x="32" y="421"/>
      <point x="32" y="164" type="curve" smooth="yes"/>
      <point x="32" y="5"/>
      <point x="125" y="-87"/>
    </contour>
  </outline>
</glyph>
<glyph name="J" format="2">
  <advance width="440"/>
  <unicode hex="004A"/>
  <outline>
    <contour>
      <point x="104" y="-86" type="curve" smooth="yes"/>
      <point x="166" y="-86"/>
      <point x="225" y="-54"/>
      <point x="278" y="63" type="curve" smooth="yes"/>
      <point x="357" y="238"/>
      <point x="415" y="571"/>
      <point x="416" y="615" type="curve" smooth="yes"/>
      <point x="416" y="627"/>
      <point x="412" y="642"/>
      <point x="403" y="654" type="curve"/>
      <point x="414" y="654"/>
      <point x="440" y="655"/>
      <point x="461" y="655" type="curve" smooth="yes"/>
      <point x="485" y="655"/>
      <point x="530" y="660"/>
      <point x="552" y="696" type="curve"/>
      <point x="510" y="703"/>
      <point x="405" y="718"/>
      <point x="322" y="718" type="curve" smooth="yes"/>
      <point x="206" y="718"/>
      <point x="151" y="694"/>
      <point x="142" y="631" type="curve"/>
      <point x="205" y="645"/>
      <point x="259" y="652"/>
      <point x="356" y="654" type="curve"/>
      <point x="332" y="521"/>
      <point x="263" y="204"/>
      <point x="212" y="61" type="curve" smooth="yes"/>
      <point x="185" y="-13"/>
      <point x="159" y="-37"/>
      <point x="127" y="-37" type="curve" smooth="yes"/>
      <point x="89" y="-37"/>
      <point x="65" y="-5"/>
      <point x="65" y="49" type="curve" smooth="yes"/>
      <point x="65" y="92"/>
      <point x="77" y="147"/>
      <point x="103" y="210" type="curve"/>
      <point x="87" y="217"/>
      <point x="74" y="221"/>
      <point x="64" y="221" type="curve" smooth="yes"/>
      <point x="10" y="221"/>
      <point x="-18" y="129"/>
      <point x="-18" y="49" type="curve" smooth="yes"/>
      <point x="-18" y="-67"/>
      <point x="52" y="-86"/>
    </contour>
  </outline>
</glyph>
<glyph name="L" format="2">
  <advance width="610"/>
  <unicode hex="004C"/>
  <anchor x="504" y="272" name="center"/>
  <anchor x="643" y="588" name="topright"/>
  <outline>
    <contour>
      <point x="437" y="-87" type="curve" smooth="yes"/>
      <point x="492" y="-87"/>
      <point x="530" y="-57"/>
      <point x="557" y="18" type="curve"/>
      <point x="526" y="3"/>
      <point x="501" y="-4"/>
      <point x="469" y="-4" type="curve" smooth="yes"/>
      <point x="396" y="-4"/>
      <point x="281" y="31"/>
      <point x="204" y="54" type="curve"/>
      <point x="259" y="138"/>
      <point x="303" y="264"/>
      <point x="341" y="380" type="curve"/>
      <point x="344" y="380"/>
      <point x="347" y="380"/>
      <point x="350" y="380" type="curve" smooth="yes"/>
      <point x="533" y="385"/>
      <point x="607" y="522"/>
      <point x="607" y="612" type="curve" smooth="yes"/>
      <point x="607" y="697"/>
      <point x="541" y="720"/>
      <point x="496" y="720" type="curve" smooth="yes"/>
      <point x="387" y="720"/>
      <point x="325" y="581"/>
      <point x="275" y="429" type="curve"/>
      <point x="246" y="446"/>
      <point x="223" y="477"/>
      <point x="223" y="521" type="curve" smooth="yes"/>
      <point x="223" y="537"/>
      <point x="226" y="567"/>
      <point x="243" y="589" type="curve"/>
      <point x="190" y="589"/>
      <point x="159" y="542"/>
      <point x="159" y="503" type="curve" smooth="yes"/>
      <point x="159" y="461"/>
      <point x="196" y="416"/>
      <point x="263" y="394" type="curve"/>
      <point x="225" y="280"/>
      <point x="189" y="150"/>
      <point x="144" y="70" type="curve"/>
      <point x="98" y="82"/>
      <point x="54" y="90"/>
      <point x="18" y="90" type="curve" smooth="yes"/>
      <point x="-44" y="90"/>
      <point x="-64" y="66"/>
      <point x="-64" y="40" type="curve" smooth="yes"/>
      <point x="-64" y="3"/>
      <point x="-22" y="-53"/>
      <point x="49" y="-53" type="curve" smooth="yes"/>
      <point x="93" y="-53"/>
      <point x="131" y="-32"/>
      <point x="165" y="4" type="curve"/>
      <point x="256" y="-34"/>
      <point x="363" y="-87"/>
    </contour>
    <contour>
      <point x="39" y="-16" type="curve" smooth="yes"/>
      <point x="3" y="-16"/>
      <point x="-28" y="4"/>
      <point x="-28" y="26" type="curve" smooth="yes"/>
      <point x="-28" y="39"/>
      <point x="-18" y="50"/>
      <point x="8" y="50" type="curve" smooth="yes"/>
      <point x="34" y="50"/>
      <point x="72" y="39"/>
      <point x="113" y="24" type="curve"/>
      <point x="91" y="1"/>
      <point x="73" y="-16"/>
    </contour>
    <contour>
      <point x="352" y="413" type="curve"/>
      <point x="400" y="558"/>
      <point x="445" y="681"/>
      <point x="504" y="681" type="curve" smooth="yes"/>
      <point x="521" y="681"/>
      <point x="537" y="671"/>
      <point x="537" y="636" type="curve" smooth="yes"/>
      <point x="537" y="564"/>
      <point x="468" y="422"/>
    </contour>
  </outline>
</glyph>
<glyph name="M" format="2">
  <advance width="806"/>
  <unicode hex="004D"/>
  <outline>
    <contour>
      <point x="-5" y="-87" type="curve"/>
      <point x="86" y="-87"/>
      <point x="142" y="98"/>
      <point x="346" y="571" type="curve"/>
      <point x="346" y="552"/>
      <point x="347" y="532"/>
      <point x="347" y="512" type="curve" smooth="yes"/>
      <point x="347" y="399"/>
      <point x="339" y="262"/>
      <point x="339" y="157" type="curve" smooth="yes"/>
      <point x="339" y="58"/>
      <point x="346" y="-2"/>
      <point x="393" y="-2" type="curve" smooth="yes"/>
      <point x="399" y="-2"/>
      <point x="402" y="-1"/>
      <point x="414" y="3" type="curve"/>
      <point x="452" y="115"/>
      <point x="569" y="395"/>
      <point x="663" y="529" type="curve"/>
      <point x="618" y="355"/>
      <point x="578" y="191"/>
      <point x="578" y="43" type="curve" smooth="yes"/>
      <point x="578" y="-51"/>
      <point x="594" y="-87"/>
      <point x="681" y="-87" type="curve"/>
      <point x="668" y="-52"/>
      <point x="661" y="-43"/>
      <point x="661" y="10" type="curve" smooth="yes"/>
      <point x="661" y="142"/>
      <point x="705" y="379"/>
      <point x="745" y="540" type="curve" smooth="yes"/>
      <point x="763" y="613"/>
      <point x="780" y="671"/>
      <point x="792" y="697" type="curve"/>
      <point x="770" y="705"/>
      <point x="759" y="708"/>
      <point x="748" y="708" type="curve" smooth="yes"/>
      <point x="723" y="708"/>
      <point x="712" y="693"/>
      <point x="693" y="664" type="curve" smooth="yes"/>
      <point x="646" y="594"/>
      <point x="479" y="315"/>
      <point x="413" y="117" type="curve"/>
      <point x="413" y="199"/>
      <point x="432" y="341"/>
      <point x="432" y="472" type="curve" smooth="yes"/>
      <point x="432" y="671"/>
      <point x="388" y="720"/>
      <point x="315" y="720" type="curve" smooth="yes"/>
      <point x="219" y="720"/>
      <point x="109" y="636"/>
      <point x="109" y="551" type="curve" smooth="yes"/>
      <point x="109" y="512"/>
      <point x="132" y="460"/>
      <point x="180" y="460" type="curve"/>
      <point x="177" y="480"/>
      <point x="176" y="496"/>
      <point x="176" y="508" type="curve" smooth="yes"/>
      <point x="176" y="579"/>
      <point x="213" y="669"/>
      <point x="296" y="669" type="curve" smooth="yes"/>
      <point x="318" y="669"/>
      <point x="325" y="660"/>
      <point x="325" y="647" type="curve" smooth="yes"/>
      <point x="325" y="637"/>
      <point x="321" y="625"/>
      <point x="316" y="614" type="curve" smooth="yes"/>
      <point x="128" y="202"/>
      <point x="9" y="-46"/>
    </contour>
  </outline>
</glyph>
<glyph name="P" format="2">
  <advance width="559"/>
  <unicode hex="0050"/>
  <outline>
    <contour>
      <point x="117" y="-87" type="curve"/>
      <point x="148" y="20"/>
      <point x="184" y="157"/>
      <point x="222" y="289" type="curve"/>
      <point x="228" y="289" type="line" smooth="yes"/>
      <point x="300" y="289"/>
      <point x="628" y="312"/>
      <point x="628" y="524" type="curve" smooth="yes"/>
      <point x="628" y="654"/>
      <point x="475" y="720"/>
      <point x="349" y="720" type="curve" smooth="yes"/>
      <point x="260" y="720"/>
      <point x="169" y="687"/>
      <point x="114" y="664" type="curve"/>
      <point x="114" y="650"/>
      <point x="141" y="625"/>
      <point x="152" y="625" type="curve" smooth="yes"/>
      <point x="167" y="625"/>
      <point x="210" y="660"/>
      <point x="286" y="677" type="curve"/>
      <point x="185" y="453"/>
      <point x="129" y="279"/>
      <point x="47" y="26" type="curve" smooth="yes"/>
      <point x="41" y="8"/>
      <point x="34" y="-13"/>
      <point x="34" y="-30" type="curve" smooth="yes"/>
      <point x="34" y="-63"/>
      <point x="77" y="-87"/>
    </contour>
    <contour>
      <point x="231" y="320" type="curve"/>
      <point x="271" y="458"/>
      <point x="315" y="592"/>
      <point x="363" y="685" type="curve"/>
      <point x="455" y="682"/>
      <point x="545" y="639"/>
      <point x="545" y="540" type="curve" smooth="yes"/>
      <point x="545" y="398"/>
      <point x="381" y="330"/>
    </contour>
  </outline>
</glyph>
<glyph name="S" format="2">
  <advance width="567"/>
  <unicode hex="0053"/>
  <outline>
    <contour>
      <point x="233" y="-87" type="curve" smooth="yes"/>
      <point x="366" y="-87"/>
      <point x="507" y="-9"/>
      <point x="507" y="129" type="curve" smooth="yes"/>
      <point x="507" y="336"/>
      <point x="188" y="332"/>
      <point x="188" y="476" type="curve" smooth="yes"/>
      <point x="188" y="554"/>
      <point x="280" y="682"/>
      <point x="407" y="682" type="curve" smooth="yes"/>
      <point x="449" y="682"/>
      <point x="460" y="668"/>
      <point x="460" y="644" type="curve" smooth="yes"/>
      <point x="460" y="590"/>
      <point x="403" y="497"/>
      <point x="403" y="442" type="curve" smooth="yes"/>
      <point x="403" y="414"/>
      <point x="418" y="397"/>
      <point x="447" y="391" type="curve"/>
      <point x="481" y="444"/>
      <point x="527" y="540"/>
      <point x="527" y="615" type="curve" smooth="yes"/>
      <point x="527" y="678"/>
      <point x="494" y="720"/>
      <point x="402" y="720" type="curve" smooth="yes"/>
      <point x="225" y="720"/>
      <point x="111" y="563"/>
      <point x="111" y="453" type="curve" smooth="yes"/>
      <point x="111" y="268"/>
      <point x="435" y="266"/>
      <point x="435" y="101" type="curve" smooth="yes"/>
      <point x="435" y="12"/>
      <point x="340" y="-34"/>
      <point x="250" y="-34" type="curve" smooth="yes"/>
      <point x="146" y="-34"/>
      <point x="93" y="28"/>
      <point x="93" y="96" type="curve" smooth="yes"/>
      <point x="93" y="140"/>
      <point x="115" y="190"/>
      <point x="158" y="235" type="curve"/>
      <point x="89" y="235"/>
      <point x="4" y="204"/>
      <point x="4" y="96" type="curve" smooth="yes"/>
      <point x="4" y="-27"/>
      <point x="116" y="-87"/>
    </contour>
  </outline>
</glyph>
<glyph name="U" format="2">
  <advance width="750"/>
  <unicode hex="0055"/>
  <anchor x="396" y="-56" name="ogonek"/>
  <anchor x="693" y="714" name="topright"/>
  <outline>
    <contour>
      <point x="588" y="-99" type="curve" smooth="yes"/>
      <point x="617" y="-99"/>
      <point x="658" y="-83"/>
      <point x="673" y="-58" type="curve"/>
      <point x="604" y="-58"/>
      <point x="579" y="-39"/>
      <point x="579" y="44" type="curve" smooth="yes"/>
      <point x="579" y="244"/>
      <point x="727" y="653"/>
      <point x="764" y="680" type="curve"/>
      <point x="738" y="704"/>
      <point x="713" y="719"/>
      <point x="700" y="719" type="curve" smooth="yes"/>
      <point x="641" y="719"/>
      <point x="570" y="424"/>
      <point x="522" y="227" type="curve" smooth="yes"/>
      <point x="497" y="124"/>
      <point x="427" y="-34"/>
      <point x="317" y="-34" type="curve" smooth="yes"/>
      <point x="257" y="-34"/>
      <point x="234" y="13"/>
      <point x="234" y="75" type="curve" smooth="yes"/>
      <point x="234" y="137"/>
      <point x="257" y="214"/>
      <point x="291" y="322" type="curve" smooth="yes"/>
      <point x="319" y="412"/>
      <point x="351" y="516"/>
      <point x="351" y="590" type="curve" smooth="yes"/>
      <point x="351" y="668"/>
      <point x="316" y="719"/>
      <point x="235" y="719" type="curve" smooth="yes"/>
      <point x="120" y="719"/>
      <point x="33" y="618"/>
      <point x="33" y="536" type="curve" smooth="yes"/>
      <point x="33" y="492"/>
      <point x="58" y="459"/>
      <point x="122" y="459" type="curve"/>
      <point x="115" y="477"/>
      <point x="109" y="503"/>
      <point x="109" y="523" type="curve" smooth="yes"/>
      <point x="109" y="570"/>
      <point x="140" y="678"/>
      <point x="211" y="678" type="curve" smooth="yes"/>
      <point x="248" y="678"/>
      <point x="265" y="648"/>
      <point x="265" y="588" type="curve" smooth="yes"/>
      <point x="265" y="427"/>
      <point x="145" y="211"/>
      <point x="145" y="64" type="curve" smooth="yes"/>
      <point x="145" y="-32"/>
      <point x="197" y="-88"/>
      <point x="287" y="-88" type="curve" smooth="yes"/>
      <point x="384" y="-88"/>
      <point x="452" y="-24"/>
      <point x="500" y="65" type="curve"/>
      <point x="499" y="43"/>
      <point x="498" y="23"/>
      <point x="498" y="13" type="curve" smooth="yes"/>
      <point x="498" y="-49"/>
      <point x="538" y="-99"/>
    </contour>
  </outline>
</glyph>
<glyph name="V" format="2">
  <advance width="669"/>
  <unicode hex="0056"/>
  <outline>
    <contour>
      <point x="245" y="-87" type="curve" smooth="yes"/>
      <point x="423" y="-87"/>
      <point x="695" y="361"/>
      <point x="695" y="576" type="curve" smooth="yes"/>
      <point x="695" y="658"/>
      <point x="656" y="706"/>
      <point x="620" y="706" type="curve" smooth="yes"/>
      <point x="598" y="706"/>
      <point x="567" y="689"/>
      <point x="549" y="649" type="curve"/>
      <point x="588" y="636"/>
      <point x="616" y="601"/>
      <point x="616" y="530" type="curve" smooth="yes"/>
      <point x="616" y="316"/>
      <point x="381" y="-42"/>
      <point x="267" y="-42" type="curve" smooth="yes"/>
      <point x="247" y="-42"/>
      <point x="243" y="-30"/>
      <point x="243" y="-8" type="curve" smooth="yes"/>
      <point x="243" y="112"/>
      <point x="366" y="352"/>
      <point x="366" y="535" type="curve" smooth="yes"/>
      <point x="366" y="650"/>
      <point x="318" y="720"/>
      <point x="228" y="720" type="curve" smooth="yes"/>
      <point x="120" y="720"/>
      <point x="34" y="621"/>
      <point x="34" y="540" type="curve" smooth="yes"/>
      <point x="34" y="495"/>
      <point x="61" y="460"/>
      <point x="127" y="460" type="curve"/>
      <point x="116" y="481"/>
      <point x="112" y="502"/>
      <point x="112" y="525" type="curve" smooth="yes"/>
      <point x="112" y="585"/>
      <point x="139" y="678"/>
      <point x="208" y="678" type="curve" smooth="yes"/>
      <point x="258" y="678"/>
      <point x="269" y="629"/>
      <point x="269" y="559" type="curve" smooth="yes"/>
      <point x="269" y="326"/>
      <point x="149" y="104"/>
      <point x="149" y="2" type="curve" smooth="yes"/>
      <point x="149" y="-73"/>
      <point x="213" y="-87"/>
    </contour>
  </outline>
</glyph>
<glyph name="asciicircum" format="2">
  <advance width="210"/>
  <unicode hex="005E"/>
  <outline>
    <contour>
      <point x="185" y="406" type="curve"/>
      <point x="203" y="415"/>
      <point x="210" y="430"/>
      <point x="210" y="444" type="curve" smooth="yes"/>
      <point x="210" y="485"/>
      <point x="147" y="550"/>
      <point x="115" y="550" type="curve" smooth="yes"/>
      <point x="86" y="550"/>
      <point x="1" y="503"/>
      <point x="1" y="464" type="curve" smooth="yes"/>
      <point x="1" y="457"/>
      <point x="4" y="446"/>
      <point x="14" y="440" type="curve"/>
      <point x="49" y="463"/>
      <point x="78" y="476"/>
      <point x="114" y="488" type="curve"/>
      <point x="142" y="463"/>
      <point x="164" y="442"/>
    </contour>
  </outline>
</glyph>
<glyph name="a" format="2">
  <advance width="444"/>
  <unicode hex="0061"/>
  <anchor x="369" y="0" name="ogonek"/>
  <outline>
    <contour>
      <point x="56" y="-47" type="curve" smooth="yes"/>
      <point x="107" y="-47"/>
      <point x="148" y="-7"/>
      <point x="201" y="57" type="curve"/>
      <point x="201" y="55"/>
      <point x="201" y="54"/>
      <point x="201" y="52" type="curve" smooth="yes"/>
      <point x="203" y="12"/>
      <point x="229" y="-30"/>
      <point x="284" y="-30" type="curve" smooth="yes"/>
      <point x="359" y="-30"/>
      <point x="438" y="45"/>
      <point x="487" y="154" type="curve"/>
      <point x="468" y="173" type="line"/>
      <point x="408" y="59"/>
      <point x="344" y="17"/>
      <point x="312" y="17" type="curve" smooth="yes"/>
      <point x="290" y="17"/>
      <point x="282" y="36"/>
      <point x="282" y="53" type="curve" smooth="yes"/>
      <point x="282" y="97"/>
      <point x="339" y="159"/>
      <point x="339" y="185" type="curve" smooth="yes"/>
      <point x="339" y="207"/>
      <point x="300" y="216"/>
      <point x="292" y="218" type="curve"/>
      <point x="289" y="218"/>
      <point x="286" y="216"/>
      <point x="284" y="213" type="curve"/>
      <point x="233" y="145"/>
      <point x="138" y="4"/>
      <point x="77" y="4" type="curve" smooth="yes"/>
      <point x="61" y="4"/>
      <point x="54" y="13"/>
      <point x="54" y="36" type="curve" smooth="yes"/>
      <point x="54" y="128"/>
      <point x="166" y="306"/>
      <point x="259" y="306" type="curve" smooth="yes"/>
      <point x="293" y="306"/>
      <point x="301" y="281"/>
      <point x="301" y="254" type="curve" smooth="yes"/>
      <point x="301" y="240"/>
      <point x="299" y="229"/>
      <point x="296" y="217" type="curve"/>
      <point x="331" y="210"/>
      <point x="360" y="227"/>
      <point x="360" y="263" type="curve"/>
      <point x="360" y="311"/>
      <point x="314" y="343"/>
      <point x="257" y="343" type="curve" smooth="yes"/>
      <point x="119" y="343"/>
      <point x="-26" y="158"/>
      <point x="-26" y="41" type="curve" smooth="yes"/>
      <point x="-26" y="-18"/>
      <point x="12" y="-47"/>
    </contour>
  </outline>
</glyph>
<glyph name="b" format="2">
  <advance width="409"/>
  <unicode hex="0062"/>
  <outline>
    <contour>
      <point x="105" y="-73" type="curve" smooth="yes"/>
      <point x="179" y="-73"/>
      <point x="234" y="-25"/>
      <point x="272" y="35" type="curve"/>
      <point x="279" y="34"/>
      <point x="286" y="34"/>
      <point x="293" y="34" type="curve" smooth="yes"/>
      <point x="372" y="34"/>
      <point x="416" y="76"/>
      <point x="450" y="155" type="curve"/>
      <point x="435" y="176" type="line"/>
      <point x="414" y="133"/>
      <point x="376" y="65"/>
      <point x="306" y="65" type="curve" smooth="yes"/>
      <point x="298" y="65"/>
      <point x="295" y="66"/>
      <point x="288" y="66" type="curve"/>
      <point x="308" y="109"/>
      <point x="318" y="153"/>
      <point x="318" y="192" type="curve" smooth="yes"/>
      <point x="318" y="260"/>
      <point x="287" y="292"/>
      <point x="244" y="292" type="curve" smooth="yes"/>
      <point x="193" y="292"/>
      <point x="153" y="248"/>
      <point x="153" y="183" type="curve" smooth="yes"/>
      <point x="153" y="130"/>
      <point x="179" y="78"/>
      <point x="228" y="51" type="curve"/>
      <point x="203" y="5"/>
      <point x="158" y="-31"/>
      <point x="123" y="-31" type="curve" smooth="yes"/>
      <point x="84" y="-31"/>
      <point x="71" y="13"/>
      <point x="71" y="66" type="curve" smooth="yes"/>
      <point x="71" y="148"/>
      <point x="102" y="240"/>
      <point x="116" y="266" type="curve"/>
      <point x="240" y="337"/>
      <point x="348" y="551"/>
      <point x="348" y="645" type="curve"/>
      <point x="347" y="676"/>
      <point x="334" y="714"/>
      <point x="307" y="714" type="curve" smooth="yes"/>
      <point x="216" y="714"/>
      <point x="-11" y="257"/>
      <point x="-11" y="60" type="curve" smooth="yes"/>
      <point x="-11" y="-23"/>
      <point x="29" y="-73"/>
    </contour>
    <contour>
      <point x="245" y="84" type="curve"/>
      <point x="212" y="107"/>
      <point x="202" y="150"/>
      <point x="202" y="178" type="curve" smooth="yes"/>
      <point x="202" y="211"/>
      <point x="216" y="239"/>
      <point x="234" y="239" type="curve" smooth="yes"/>
      <point x="250" y="239"/>
      <point x="263" y="217"/>
      <point x="263" y="169" type="curve" smooth="yes"/>
      <point x="263" y="137"/>
      <point x="257" y="111"/>
    </contour>
    <contour>
      <point x="135" y="329" type="curve"/>
      <point x="180" y="468"/>
      <point x="276" y="611"/>
      <point x="301" y="620" type="curve"/>
      <point x="301" y="618"/>
      <point x="301" y="616"/>
      <point x="301" y="614" type="curve" smooth="yes"/>
      <point x="294" y="560"/>
      <point x="218" y="406"/>
    </contour>
  </outline>
</glyph>
<glyph name="d" format="2">
  <advance width="491"/>
  <unicode hex="0064"/>
  <anchor x="571" y="558" name="topright"/>
  <outline>
    <contour>
      <point x="69" y="-30" type="curve" smooth="yes"/>
      <point x="128" y="-30"/>
      <point x="202" y="35"/>
      <point x="265" y="126" type="curve"/>
      <point x="261" y="105"/>
      <point x="257" y="82"/>
      <point x="257" y="61" type="curve" smooth="yes"/>
      <point x="257" y="14"/>
      <point x="275" y="-26"/>
      <point x="330" y="-26" type="curve" smooth="yes"/>
      <point x="405" y="-26"/>
      <point x="492" y="50"/>
      <point x="536" y="160" type="curve"/>
      <point x="517" y="176" type="line"/>
      <point x="471" y="81"/>
      <point x="405" y="28"/>
      <point x="362" y="28" type="curve" smooth="yes"/>
      <point x="347" y="28"/>
      <point x="342" y="37"/>
      <point x="342" y="69" type="curve" smooth="yes"/>
      <point x="342" y="283"/>
      <point x="569" y="621"/>
      <point x="569" y="690" type="curve" smooth="yes"/>
      <point x="569" y="707"/>
      <point x="556" y="720"/>
      <point x="541" y="720" type="curve" smooth="yes"/>
      <point x="480" y="720"/>
      <point x="389" y="487"/>
      <point x="315" y="297" type="curve" smooth="yes"/>
      <point x="250" y="131"/>
      <point x="156" y="32"/>
      <point x="102" y="32" type="curve" smooth="yes"/>
      <point x="81" y="32"/>
      <point x="70" y="48"/>
      <point x="70" y="74" type="curve" smooth="yes"/>
      <point x="70" y="149"/>
      <point x="160" y="323"/>
      <point x="270" y="323" type="curve" smooth="yes"/>
      <point x="285" y="323"/>
      <point x="299" y="320"/>
      <point x="305" y="312" type="curve"/>
      <point x="315" y="318"/>
      <point x="317" y="328"/>
      <point x="317" y="335" type="curve" smooth="yes"/>
      <point x="317" y="358"/>
      <point x="298" y="367"/>
      <point x="268" y="367" type="curve" smooth="yes"/>
      <point x="128" y="367"/>
      <point x="-16" y="171"/>
      <point x="-16" y="60" type="curve" smooth="yes"/>
      <point x="-16" y="-3"/>
      <point x="31" y="-30"/>
    </contour>
  </outline>
</glyph>
<glyph name="l" format="2">
  <advance width="245"/>
  <unicode hex="006C"/>
  <anchor x="387" y="592" name="topright"/>
  <anchor x="348" y="334" name="center"/>
  <outline>
    <contour>
      <point x="86" y="-30" type="curve" smooth="yes"/>
      <point x="163" y="-30"/>
      <point x="236" y="43"/>
      <point x="293" y="162" type="curve"/>
      <point x="269" y="175" type="line"/>
      <point x="232" y="96"/>
      <point x="174" y="16"/>
      <point x="124" y="16" type="curve" smooth="yes"/>
      <point x="98" y="16"/>
      <point x="81" y="37"/>
      <point x="81" y="85" type="curve" smooth="yes"/>
      <point x="81" y="111"/>
      <point x="86" y="145"/>
      <point x="92" y="179" type="curve"/>
      <point x="244" y="299"/>
      <point x="362" y="551"/>
      <point x="362" y="640" type="curve"/>
      <point x="361" y="671"/>
      <point x="345" y="720"/>
      <point x="320" y="720" type="curve" smooth="yes"/>
      <point x="244" y="720"/>
      <point x="2" y="272"/>
      <point x="2" y="76" type="curve" smooth="yes"/>
      <point x="2" y="18"/>
      <point x="23" y="-30"/>
    </contour>
    <contour>
      <point x="110" y="241" type="curve"/>
      <point x="167" y="422"/>
      <point x="291" y="629"/>
      <point x="316" y="629" type="curve"/>
      <point x="316" y="628"/>
      <point x="316" y="627"/>
      <point x="316" y="626" type="curve" smooth="yes"/>
      <point x="314" y="559"/>
      <point x="222" y="363"/>
    </contour>
  </outline>
</glyph>
<glyph name="m" format="2">
  <advance width="660"/>
  <unicode hex="006D"/>
  <outline>
    <contour>
      <point x="523" y="-31" type="curve" smooth="yes"/>
      <point x="610" y="-31"/>
      <point x="670" y="70"/>
      <point x="702" y="152" type="curve"/>
      <point x="685" y="173" type="line"/>
      <point x="654" y="106"/>
      <point x="603" y="17"/>
      <point x="550" y="17" type="curve" smooth="yes"/>
      <point x="530" y="17"/>
      <point x="525" y="30"/>
      <point x="525" y="44" type="curve" smooth="yes"/>
      <point x="525" y="79"/>
      <point x="559" y="144"/>
      <point x="559" y="196" type="curve" smooth="yes"/>
      <point x="559" y="233"/>
      <point x="542" y="271"/>
      <point x="490" y="271" type="curve" smooth="yes"/>
      <point x="432" y="271"/>
      <point x="383" y="224"/>
      <point x="345" y="168" type="curve"/>
      <point x="356" y="201"/>
      <point x="362" y="221"/>
      <point x="362" y="248" type="curve" smooth="yes"/>
      <point x="362" y="289"/>
      <point x="348" y="332"/>
      <point x="299" y="332" type="curve" smooth="yes"/>
      <point x="233" y="332"/>
      <point x="159" y="254"/>
      <point x="104" y="179" type="curve"/>
      <point x="112" y="211"/>
      <point x="118" y="238"/>
      <point x="118" y="251" type="curve" smooth="yes"/>
      <point x="118" y="271"/>
      <point x="103" y="284"/>
      <point x="84" y="284" type="curve" smooth="yes"/>
      <point x="65" y="284"/>
      <point x="33" y="271"/>
      <point x="29" y="256" type="curve" smooth="yes"/>
      <point x="7.687999999999999" y="170.752"/>
      <point x="-35" y="2"/>
      <point x="-35" y="0" type="curve"/>
      <point x="-35" y="-10"/>
      <point x="9" y="-27"/>
      <point x="32" y="-27" type="curve"/>
      <point x="80" y="105"/>
      <point x="197" y="253"/>
      <point x="252" y="253" type="curve" smooth="yes"/>
      <point x="267" y="253"/>
      <point x="273" y="242"/>
      <point x="273" y="223" type="curve" smooth="yes"/>
      <point x="273" y="161"/>
      <point x="207" y="26"/>
      <point x="207" y="3" type="curve" smooth="yes"/>
      <point x="207" y="-15"/>
      <point x="249" y="-23"/>
      <point x="267" y="-23" type="curve"/>
      <point x="282" y="1"/>
      <point x="300" y="40"/>
      <point x="322" y="72" type="curve" smooth="yes"/>
      <point x="382" y="161"/>
      <point x="420" y="209"/>
      <point x="451" y="209" type="curve" smooth="yes"/>
      <point x="464" y="209"/>
      <point x="474" y="201"/>
      <point x="474" y="179" type="curve" smooth="yes"/>
      <point x="474" y="142"/>
      <point x="446" y="92"/>
      <point x="446" y="47" type="curve" smooth="yes"/>
      <point x="446" y="4"/>
      <point x="471" y="-31"/>
    </contour>
  </outline>
</glyph>
<glyph name="q" format="2">
  <advance width="417"/>
  <unicode hex="0071"/>
  <outline>
    <contour>
      <point x="216" y="-280" type="curve" smooth="yes"/>
      <point x="264" y="-280"/>
      <point x="296" y="-205"/>
      <point x="296" y="-106" type="curve" smooth="yes"/>
      <point x="296" y="-70"/>
      <point x="290" y="-33"/>
      <point x="279" y="-1" type="curve"/>
      <point x="344" y="10"/>
      <point x="411" y="54"/>
      <point x="460" y="153" type="curve"/>
      <point x="442" y="169" type="line"/>
      <point x="393" y="77"/>
      <point x="333" y="36"/>
      <point x="279" y="29" type="curve"/>
      <point x="307" y="147"/>
      <point x="366" y="195"/>
      <point x="366" y="237" type="curve" smooth="yes"/>
      <point x="366" y="245"/>
      <point x="362" y="260"/>
      <point x="346" y="263" type="curve"/>
      <point x="360" y="270"/>
      <point x="367" y="287"/>
      <point x="367" y="301" type="curve" smooth="yes"/>
      <point x="367" y="334"/>
      <point x="327" y="357"/>
      <point x="277" y="357" type="curve" smooth="yes"/>
      <point x="134" y="357"/>
      <point x="-14" y="174"/>
      <point x="-14" y="56" type="curve" smooth="yes"/>
      <point x="-14" y="-10"/>
      <point x="35" y="-36"/>
      <point x="69" y="-36" type="curve" smooth="yes"/>
      <point x="116" y="-36"/>
      <point x="165" y="11"/>
      <point x="218" y="77" type="curve"/>
      <point x="191" y="-18"/>
      <point x="173" y="-139"/>
      <point x="173" y="-201" type="curve" smooth="yes"/>
      <point x="173" y="-263"/>
      <point x="194" y="-280"/>
    </contour>
    <contour>
      <point x="237" y="-215" type="curve" smooth="yes"/>
      <point x="234" y="-215"/>
      <point x="233" y="-211"/>
      <point x="233" y="-194" type="curve" smooth="yes"/>
      <point x="233" y="-151"/>
      <point x="239" y="-106"/>
      <point x="250" y="-53" type="curve"/>
      <point x="252" y="-66"/>
      <point x="253" y="-77"/>
      <point x="253" y="-100" type="curve" smooth="yes"/>
      <point x="253" y="-153"/>
      <point x="248" y="-215"/>
    </contour>
    <contour>
      <point x="102" y="25" type="curve" smooth="yes"/>
      <point x="80" y="25"/>
      <point x="69" y="45"/>
      <point x="69" y="69" type="curve" smooth="yes"/>
      <point x="69" y="141"/>
      <point x="157" y="315"/>
      <point x="271" y="315" type="curve" smooth="yes"/>
      <point x="304" y="315"/>
      <point x="326" y="296"/>
      <point x="326" y="267" type="curve"/>
      <point x="312" y="267"/>
      <point x="302" y="253"/>
      <point x="287" y="230" type="curve" smooth="yes"/>
      <point x="227" y="138"/>
      <point x="153" y="25"/>
    </contour>
  </outline>
</glyph>
<glyph name="r" format="2">
  <advance width="363"/>
  <unicode hex="0072"/>
  <outline>
    <contour>
      <point x="185" y="-26" type="curve" smooth="yes"/>
      <point x="275" y="-26"/>
      <point x="370" y="66"/>
      <point x="409" y="153" type="curve"/>
      <point x="385" y="171" type="line"/>
      <point x="359" y="114"/>
      <point x="274" y="24"/>
      <point x="211" y="24" type="curve" smooth="yes"/>
      <point x="198" y="24"/>
      <point x="186" y="28"/>
      <point x="186" y="47" type="curve" smooth="yes"/>
      <point x="186" y="85"/>
      <point x="238" y="148"/>
      <point x="238" y="207" type="curve" smooth="yes"/>
      <point x="238" y="292"/>
      <point x="133" y="311"/>
      <point x="130" y="341" type="curve"/>
      <point x="132" y="349"/>
      <point x="141" y="371"/>
      <point x="141" y="378" type="curve" smooth="yes"/>
      <point x="141" y="385"/>
      <point x="134" y="410"/>
      <point x="118" y="410" type="curve" smooth="yes"/>
      <point x="98" y="410"/>
      <point x="71" y="373"/>
      <point x="71" y="338" type="curve" smooth="yes"/>
      <point x="71" y="325"/>
      <point x="75" y="317"/>
      <point x="81" y="311" type="curve"/>
      <point x="53" y="232"/>
      <point x="19" y="164"/>
      <point x="0" y="130" type="curve"/>
      <point x="15" y="101" type="line"/>
      <point x="38" y="139"/>
      <point x="79" y="214"/>
      <point x="109" y="288" type="curve"/>
      <point x="136" y="274"/>
      <point x="159" y="255"/>
      <point x="159" y="224" type="curve" smooth="yes"/>
      <point x="159" y="176"/>
      <point x="102" y="102"/>
      <point x="102" y="46" type="curve" smooth="yes"/>
      <point x="102" y="2"/>
      <point x="136" y="-26"/>
    </contour>
  </outline>
</glyph>
<glyph name="t" format="2">
  <advance width="288"/>
  <unicode hex="0074"/>
  <anchor x="279" y="424" name="topright"/>
  <outline>
    <contour>
      <point x="91" y="-46" type="curve" smooth="yes"/>
      <point x="187" y="-46"/>
      <point x="279" y="45"/>
      <point x="332" y="164" type="curve"/>
      <point x="318" y="174" type="line"/>
      <point x="266" y="70"/>
      <point x="190" y="5"/>
      <point x="124" y="5" type="curve" smooth="yes"/>
      <point x="87" y="5"/>
      <point x="70" y="25"/>
      <point x="70" y="80" type="curve" smooth="yes"/>
      <point x="70" y="145"/>
      <point x="94" y="215"/>
      <point x="122" y="281" type="curve"/>
      <point x="126" y="281"/>
      <point x="130" y="281"/>
      <point x="134" y="281" type="curve" smooth="yes"/>
      <point x="190" y="282"/>
      <point x="249" y="286"/>
      <point x="323" y="293" type="curve"/>
      <point x="323" y="326" type="line"/>
      <point x="274" y="321"/>
      <point x="229" y="319"/>
      <point x="171" y="319" type="curve" smooth="yes"/>
      <point x="161" y="319"/>
      <point x="151" y="319"/>
      <point x="140" y="319" type="curve"/>
      <point x="196" y="431"/>
      <point x="269" y="528"/>
      <point x="269" y="568" type="curve" smooth="yes"/>
      <point x="269" y="586"/>
      <point x="254" y="597"/>
      <point x="241" y="597" type="curve" smooth="yes"/>
      <point x="196" y="597"/>
      <point x="118" y="464"/>
      <point x="61" y="322" type="curve"/>
      <point x="46" y="323"/>
      <point x="34" y="324"/>
      <point x="13" y="327" type="curve"/>
      <point x="13" y="296" type="line"/>
      <point x="25" y="291"/>
      <point x="38" y="289"/>
      <point x="48" y="287" type="curve"/>
      <point x="16" y="200"/>
      <point x="-7" y="113"/>
      <point x="-7" y="59" type="curve" smooth="yes"/>
      <point x="-7" y="-12"/>
      <point x="32" y="-46"/>
    </contour>
  </outline>
</glyph>
<glyph name="x" format="2">
  <advance width="430"/>
  <unicode hex="0078"/>
  <outline>
    <contour>
      <point x="55" y="-59" type="curve" smooth="yes"/>
      <point x="61" y="-59"/>
      <point x="67" y="-56"/>
      <point x="72" y="-50" type="curve" smooth="yes"/>
      <point x="95" y="-21"/>
      <point x="141" y="36"/>
      <point x="194" y="96" type="curve"/>
      <point x="204" y="36"/>
      <point x="223" y="-27"/>
      <point x="285" y="-27" type="curve" smooth="yes"/>
      <point x="360" y="-27"/>
      <point x="436" y="65"/>
      <point x="471" y="156" type="curve"/>
      <point x="455" y="171" type="line"/>
      <point x="429" y="116"/>
      <point x="361" y="22"/>
      <point x="316" y="22" type="curve" smooth="yes"/>
      <point x="267" y="22"/>
      <point x="266" y="138"/>
      <point x="259" y="175" type="curve"/>
      <point x="325" y="248"/>
      <point x="391" y="306"/>
      <point x="417" y="306" type="curve"/>
      <point x="410" y="324"/>
      <point x="392" y="332"/>
      <point x="384" y="332" type="curve" smooth="yes"/>
      <point x="365" y="332"/>
      <point x="311" y="286"/>
      <point x="251" y="226" type="curve"/>
      <point x="236" y="278"/>
      <point x="212" y="311"/>
      <point x="159" y="311" type="curve" smooth="yes"/>
      <point x="65" y="311"/>
      <point x="46" y="210"/>
      <point x="8" y="144" type="curve"/>
      <point x="25" y="116" type="line"/>
      <point x="65" y="179"/>
      <point x="97" y="259"/>
      <point x="141" y="259" type="curve" smooth="yes"/>
      <point x="170" y="259"/>
      <point x="176" y="223"/>
      <point x="186" y="158" type="curve"/>
      <point x="107" y="74"/>
      <point x="37" y="-12"/>
      <point x="37" y="-39" type="curve" smooth="yes"/>
      <point x="37" y="-47"/>
      <point x="43" y="-59"/>
    </contour>
  </outline>
</glyph>
<glyph name="exclamdown" format="2">
  <advance width="297"/>
  <unicode hex="00A1"/>
  <outline>
    <contour>
      <point x="-32.0" y="-249" type="curve" smooth="yes"/>
      <point x="30.0" y="-249"/>
      <point x="120.0" y="-17"/>
      <point x="194.0" y="174" type="curve" smooth="yes"/>
      <point x="216.0" y="231"/>
      <point x="247.0" y="312"/>
      <point x="248.0" y="363" type="curve"/>
      <point x="244.0" y="364"/>
      <point x="240.0" y="366"/>
      <point x="236.0" y="367" type="curve"/>
      <point x="161.0" y="261"/>
      <point x="-60.0" y="-163"/>
      <point x="-60.0" y="-219" type="curve" smooth="yes"/>
      <point x="-60.0" y="-236"/>
      <point x="-46.0" y="-249"/>
    </contour>
    <contour>
      <point x="244" y="400" type="curve" smooth="yes"/>
      <point x="276" y="400"/>
      <point x="309" y="422"/>
      <point x="309" y="447" type="curve" smooth="yes"/>
      <point x="309" y="471"/>
      <point x="290" y="481"/>
      <point x="269" y="481" type="curve" smooth="yes"/>
      <point x="239" y="481"/>
      <point x="210" y="454"/>
      <point x="210" y="431" type="curve" smooth="yes"/>
      <point x="210" y="408"/>
      <point x="224" y="400"/>
    </contour>
  </outline>
</glyph>
<glyph name="logicalnot" format="2">
  <advance width="676"/>
  <unicode hex="00AC"/>
  <outline>
    <contour>
      <point x="495" y="26" type="curve"/>
      <point x="566.7647058823529" y="47.17647058823529"/>
      <point x="560.0" y="137.66666666666669"/>
      <point x="560" y="191" type="curve"/>
      <point x="585" y="196"/>
      <point x="611" y="203"/>
      <point x="634" y="227" type="curve"/>
      <point x="618" y="231"/>
      <point x="587" y="230"/>
      <point x="557" y="231" type="curve"/>
      <point x="553" y="256"/>
      <point x="549" y="272"/>
      <point x="549" y="289" type="curve"/>
      <point x="526" y="268"/>
      <point x="516" y="250"/>
      <point x="511" y="233" type="curve"/>
      <point x="465" y="235"/>
      <point x="413" y="236"/>
      <point x="358" y="236" type="curve" smooth="yes"/>
      <point x="203" y="236"/>
      <point x="75" y="225"/>
      <point x="44" y="170" type="curve"/>
      <point x="203" y="185"/>
      <point x="239" y="181"/>
      <point x="466" y="185" type="curve" smooth="yes"/>
      <point x="477" y="185"/>
      <point x="494" y="185"/>
      <point x="509" y="186" type="curve"/>
      <point x="509.0" y="123.88888888888889"/>
      <point x="505.32" y="74.16"/>
    </contour>
  </outline>
</glyph>
<glyph name="softhyphen" format="2">
  <advance width="485"/>
  <unicode hex="00AD"/>
  <outline>
    <contour>
      <point x="43" y="142" type="curve"/>
      <point x="58" y="144"/>
      <point x="121" y="150"/>
      <point x="171" y="150" type="curve" smooth="yes"/>
      <point x="222" y="150"/>
      <point x="268" y="144"/>
      <point x="296" y="144" type="curve" smooth="yes"/>
      <point x="351" y="144"/>
      <point x="404" y="167"/>
      <point x="418" y="198" type="curve"/>
      <point x="382" y="200"/>
      <point x="237" y="205"/>
      <point x="202" y="205" type="curve" smooth="yes"/>
      <point x="171" y="205"/>
      <point x="61" y="201"/>
    </contour>
  </outline>
</glyph>
<glyph name="onesuperior" format="2">
  <advance width="308"/>
  <unicode hex="00B9"/>
  <outline>
    <contour>
      <point x="146" y="314" type="curve" smooth="yes"/>
      <point x="174" y="314"/>
      <point x="195" y="318"/>
      <point x="232" y="318" type="curve" smooth="yes"/>
      <point x="245" y="318"/>
      <point x="271" y="316"/>
      <point x="284" y="315" type="curve"/>
      <point x="276" y="352"/>
      <point x="252" y="361"/>
      <point x="222" y="361" type="curve"/>
      <point x="230" y="377"/>
      <point x="236" y="399"/>
      <point x="242" y="427" type="curve" smooth="yes"/>
      <point x="254" y="487" type="line" smooth="yes"/>
      <point x="276" y="596"/>
      <point x="294" y="678"/>
      <point x="294" y="694" type="curve" smooth="yes"/>
      <point x="294" y="697"/>
      <point x="294" y="706"/>
      <point x="292" y="711" type="curve" smooth="yes"/>
      <point x="291" y="714"/>
      <point x="290" y="715"/>
      <point x="288" y="717" type="curve"/>
      <point x="284" y="717" type="line"/>
      <point x="237" y="680"/>
      <point x="181" y="641"/>
      <point x="163" y="632" type="curve"/>
      <point x="163" y="609"/>
      <point x="171" y="602"/>
      <point x="185" y="602" type="curve" smooth="yes"/>
      <point x="191" y="602"/>
      <point x="202" y="606"/>
      <point x="227" y="620" type="curve"/>
      <point x="214" y="571"/>
      <point x="196" y="419"/>
      <point x="169" y="355" type="curve"/>
      <point x="141" y="352"/>
      <point x="127" y="352"/>
      <point x="87" y="352" type="curve"/>
      <point x="105" y="326"/>
      <point x="131" y="314"/>
    </contour>
  </outline>
</glyph>
<glyph name="onequarter" format="2">
  <advance width="686"/>
  <unicode hex="00BC"/>
  <outline>
    <contour>
      <point x="52" y="-87" type="curve"/>
      <point x="128" y="-87"/>
      <point x="193" y="-13"/>
      <point x="264" y="97" type="curve" smooth="yes"/>
      <point x="351" y="233"/>
      <point x="574" y="654"/>
      <point x="596" y="710" type="curve"/>
      <point x="590" y="711"/>
      <point x="584" y="712"/>
      <point x="577" y="712" type="curve" smooth="yes"/>
      <point x="540" y="712"/>
      <point x="504" y="689"/>
      <point x="497" y="671" type="curve" smooth="yes"/>
      <point x="427" y="491"/>
      <point x="152" y="10"/>
    </contour>
    <contour>
      <point x="560" y="-27" type="curve"/>
      <point x="560" y="14"/>
      <point x="573" y="101"/>
      <point x="577" y="130" type="curve"/>
      <point x="596" y="130"/>
      <point x="625" y="151"/>
      <point x="648" y="182" type="curve"/>
      <point x="623" y="178"/>
      <point x="605" y="174"/>
      <point x="595" y="174" type="curve" smooth="yes"/>
      <point x="585" y="174" type="line"/>
      <point x="609" y="303"/>
      <point x="628" y="350"/>
      <point x="628" y="362" type="curve"/>
      <point x="627" y="376"/>
      <point x="620" y="382"/>
      <point x="607" y="383" type="curve"/>
      <point x="558" y="302"/>
      <point x="452" y="212"/>
      <point x="389" y="159" type="curve" smooth="yes"/>
      <point x="383" y="154"/>
      <point x="377" y="142"/>
      <point x="377" y="121" type="curve"/>
      <point x="405" y="128"/>
      <point x="446" y="132"/>
      <point x="485" y="132" type="curve" smooth="yes"/>
      <point x="496" y="132"/>
      <point x="507" y="132"/>
      <point x="518" y="131" type="curve"/>
      <point x="501" y="48"/>
      <point x="497" y="17"/>
      <point x="497" y="8" type="curve" smooth="yes"/>
      <point x="497" y="-14"/>
      <point x="519" y="-25"/>
    </contour>
    <contour>
      <point x="134" y="307" type="curve" smooth="yes"/>
      <point x="166" y="307"/>
      <point x="187" y="311"/>
      <point x="222" y="311" type="curve" smooth="yes"/>
      <point x="236" y="311"/>
      <point x="261" y="309"/>
      <point x="275" y="308" type="curve"/>
      <point x="267" y="346"/>
      <point x="243" y="355"/>
      <point x="212" y="355" type="curve"/>
      <point x="221" y="371"/>
      <point x="227" y="394"/>
      <point x="233" y="423" type="curve" smooth="yes"/>
      <point x="268" y="588"/>
      <point x="285" y="681"/>
      <point x="285" y="694" type="curve" smooth="yes"/>
      <point x="285" y="701"/>
      <point x="283" y="710"/>
      <point x="275" y="717" type="curve"/>
      <point x="227" y="679"/>
      <point x="154" y="631"/>
      <point x="154" y="628" type="curve" smooth="yes"/>
      <point x="154" y="607"/>
      <point x="162" y="602"/>
      <point x="176" y="602" type="curve" smooth="yes"/>
      <point x="182" y="602"/>
      <point x="193" y="605"/>
      <point x="218" y="620" type="curve"/>
      <point x="205" y="569"/>
      <point x="186" y="415"/>
      <point x="159" y="349" type="curve"/>
      <point x="137" y="345"/>
      <point x="119" y="345"/>
      <point x="75" y="345" type="curve"/>
      <point x="95" y="320"/>
      <point x="119" y="307"/>
    </contour>
    <contour>
      <point x="529" y="176" type="curve"/>
      <point x="498" y="176"/>
      <point x="475" y="177"/>
      <point x="459" y="177" type="curve"/>
      <point x="479" y="198"/>
      <point x="486" y="200"/>
      <point x="519" y="233" type="curve"/>
      <point x="547" y="258" type="line"/>
      <point x="539" y="232"/>
      <point x="538" y="224"/>
    </contour>
  </outline>
</glyph>
<glyph name="onehalf" format="2">
  <advance width="743"/>
  <unicode hex="00BD"/>
  <outline>
    <contour>
      <point x="60" y="-87" type="curve"/>
      <point x="137" y="-87"/>
      <point x="201" y="-13"/>
      <point x="272" y="97" type="curve" smooth="yes"/>
      <point x="359" y="233"/>
      <point x="582" y="654"/>
      <point x="598" y="720" type="curve"/>
      <point x="562" y="720"/>
      <point x="514" y="692"/>
      <point x="506" y="671" type="curve" smooth="yes"/>
      <point x="436" y="490"/>
      <point x="159" y="10"/>
    </contour>
    <contour>
      <point x="421" y="21" type="curve" smooth="yes"/>
      <point x="417" y="21"/>
      <point x="413" y="22"/>
      <point x="413" y="24" type="curve" smooth="yes"/>
      <point x="413" y="25"/>
      <point x="414" y="26"/>
      <point x="421" y="26" type="curve" smooth="yes"/>
      <point x="424" y="26"/>
      <point x="429" y="26"/>
      <point x="435" y="25" type="curve"/>
      <point x="429" y="22"/>
      <point x="426" y="21"/>
    </contour>
    <contour>
      <point x="136" y="307" type="curve" smooth="yes"/>
      <point x="168" y="307"/>
      <point x="189" y="311"/>
      <point x="224" y="311" type="curve" smooth="yes"/>
      <point x="238" y="311"/>
      <point x="263" y="309"/>
      <point x="277" y="308" type="curve"/>
      <point x="269" y="346"/>
      <point x="245" y="355"/>
      <point x="214" y="355" type="curve"/>
      <point x="223" y="371"/>
      <point x="229" y="394"/>
      <point x="235" y="423" type="curve" smooth="yes"/>
      <point x="270" y="588"/>
      <point x="287" y="681"/>
      <point x="287" y="694" type="curve" smooth="yes"/>
      <point x="287" y="701"/>
      <point x="285" y="710"/>
      <point x="277" y="717" type="curve"/>
      <point x="229" y="679"/>
      <point x="156" y="631"/>
      <point x="156" y="628" type="curve" smooth="yes"/>
      <point x="156" y="607"/>
      <point x="164" y="602"/>
      <point x="178" y="602" type="curve" smooth="yes"/>
      <point x="184" y="602"/>
      <point x="195" y="605"/>
      <point x="220" y="620" type="curve"/>
      <point x="207" y="569"/>
      <point x="188" y="415"/>
      <point x="161" y="349" type="curve"/>
      <point x="139" y="345"/>
      <point x="121" y="345"/>
      <point x="77" y="345" type="curve"/>
      <point x="97" y="320"/>
      <point x="121" y="307"/>
    </contour>
    <contour>
      <point x="603" y="-27" type="curve" smooth="yes"/>
      <point x="638" y="-27"/>
      <point x="657" y="-2"/>
      <point x="671" y="52" type="curve"/>
      <point x="639" y="33"/>
      <point x="625" y="27"/>
      <point x="615" y="27" type="curve" smooth="yes"/>
      <point x="592" y="27"/>
      <point x="561" y="34"/>
      <point x="527" y="41" type="curve"/>
      <point x="599" y="102"/>
      <point x="660" y="201"/>
      <point x="660" y="287" type="curve" smooth="yes"/>
      <point x="660" y="341"/>
      <point x="620" y="384"/>
      <point x="564" y="384" type="curve" smooth="yes"/>
      <point x="492" y="384"/>
      <point x="444" y="331"/>
      <point x="444" y="274" type="curve" smooth="yes"/>
      <point x="444" y="242"/>
      <point x="462" y="229"/>
      <point x="491" y="222" type="curve"/>
      <point x="510" y="222" type="line"/>
      <point x="500" y="244"/>
      <point x="498" y="254"/>
      <point x="498" y="267" type="curve" smooth="yes"/>
      <point x="498" y="316"/>
      <point x="520" y="353"/>
      <point x="556" y="353" type="curve" smooth="yes"/>
      <point x="583" y="353"/>
      <point x="602" y="335"/>
      <point x="602" y="290" type="curve" smooth="yes"/>
      <point x="602" y="208"/>
      <point x="535" y="102"/>
      <point x="476" y="51" type="curve"/>
      <point x="456" y="55"/>
      <point x="440" y="57"/>
      <point x="424" y="57" type="curve" smooth="yes"/>
      <point x="390" y="57"/>
      <point x="376" y="45"/>
      <point x="376" y="25" type="curve" smooth="yes"/>
      <point x="376" y="4"/>
      <point x="397" y="-11"/>
      <point x="423" y="-11" type="curve" smooth="yes"/>
      <point x="441" y="-11"/>
      <point x="460" y="-4"/>
      <point x="482" y="9" type="curve"/>
      <point x="514" y="-7"/>
      <point x="571" y="-27"/>
    </contour>
  </outline>
</glyph>
<glyph name="questiondown" format="2">
  <advance width="437"/>
  <unicode hex="00BF"/>
  <outline>
    <contour>
      <point x="109" y="-280" type="curve" smooth="yes"/>
      <point x="244" y="-280"/>
      <point x="330" y="-171"/>
      <point x="330" y="-57" type="curve" smooth="yes"/>
      <point x="330" y="-14"/>
      <point x="313" y="17"/>
      <point x="248" y="27" type="curve"/>
      <point x="256" y="1"/>
      <point x="259" y="-18"/>
      <point x="259" y="-41" type="curve" smooth="yes"/>
      <point x="259" y="-150"/>
      <point x="181" y="-240"/>
      <point x="112" y="-240" type="curve" smooth="yes"/>
      <point x="68" y="-240"/>
      <point x="35" y="-201"/>
      <point x="35" y="-129" type="curve" smooth="yes"/>
      <point x="35" y="18"/>
      <point x="225" y="78"/>
      <point x="225" y="215" type="curve" smooth="yes"/>
      <point x="225" y="245"/>
      <point x="216" y="254"/>
      <point x="183" y="271" type="curve"/>
      <point x="167" y="227"/>
      <point x="171" y="199"/>
      <point x="156" y="153" type="curve" smooth="yes"/>
      <point x="113" y="22"/>
      <point x="-41" y="-14"/>
      <point x="-41" y="-142" type="curve" smooth="yes"/>
      <point x="-41" y="-231"/>
      <point x="19" y="-280"/>
    </contour>
    <contour>
      <point x="201" y="319" type="curve" smooth="yes"/>
      <point x="230" y="319"/>
      <point x="266" y="340"/>
      <point x="266" y="367" type="curve" smooth="yes"/>
      <point x="266" y="389"/>
      <point x="247" y="400"/>
      <point x="226" y="400" type="curve" smooth="yes"/>
      <point x="195" y="400"/>
      <point x="166" y="374"/>
      <point x="166" y="348" type="curve" smooth="yes"/>
      <point x="166" y="328"/>
      <point x="181" y="319"/>
    </contour>
  </outline>
</glyph>
<glyph name="multiply" format="2">
  <advance width="405"/>
  <unicode hex="00D7"/>
  <outline>
    <contour>
      <point x="325" y="20" type="curve"/>
      <point x="313" y="74"/>
      <point x="285" y="111"/>
      <point x="265" y="130" type="curve" smooth="yes"/>
      <point x="216" y="175" type="line"/>
      <point x="246" y="202" type="line" smooth="yes"/>
      <point x="272" y="225"/>
      <point x="301" y="259"/>
      <point x="309" y="322" type="curve"/>
      <point x="282" y="302"/>
      <point x="226" y="257"/>
      <point x="176" y="210" type="curve"/>
      <point x="141" y="244"/>
      <point x="113" y="273"/>
      <point x="81" y="314" type="curve"/>
      <point x="73" y="298"/>
      <point x="72" y="292"/>
      <point x="72" y="285" type="curve" smooth="yes"/>
      <point x="72" y="254"/>
      <point x="100" y="217"/>
      <point x="140" y="176" type="curve"/>
      <point x="95" y="127"/>
      <point x="58" y="81"/>
      <point x="58" y="46" type="curve" smooth="yes"/>
      <point x="58" y="39"/>
      <point x="61" y="30"/>
      <point x="68" y="19" type="curve"/>
      <point x="107" y="70"/>
      <point x="139" y="103"/>
      <point x="178" y="140" type="curve"/>
      <point x="232" y="86"/>
      <point x="296" y="41"/>
    </contour>
  </outline>
</glyph>
<glyph name="Oslash" format="2">
  <advance width="654"/>
  <unicode hex="00D8"/>
  <anchor x="335" y="-69" name="ogonek"/>
  <anchor x="549" y="671" name="topright"/>
  <outline>
    <contour>
      <point x="70" y="-101" type="curve" smooth="yes"/>
      <point x="93" y="-101"/>
      <point x="125" y="-91"/>
      <point x="157" y="-70" type="curve"/>
      <point x="183" y="-81"/>
      <point x="211" y="-88"/>
      <point x="243" y="-88" type="curve" smooth="yes"/>
      <point x="409" y="-88"/>
      <point x="644" y="107"/>
      <point x="644" y="456" type="curve" smooth="yes"/>
      <point x="644" y="488"/>
      <point x="642" y="524"/>
      <point x="634" y="559" type="curve"/>
      <point x="674" y="617"/>
      <point x="696" y="650"/>
      <point x="710" y="668" type="curve"/>
      <point x="693" y="671"/>
      <point x="688" y="671"/>
      <point x="681" y="671" type="curve" smooth="yes"/>
      <point x="650" y="671"/>
      <point x="611" y="657"/>
      <point x="600" y="642" type="curve"/>
      <point x="586" y="659"/>
      <point x="567" y="670"/>
      <point x="545" y="670" type="curve" smooth="yes"/>
      <point x="472" y="670"/>
      <point x="353" y="547"/>
      <point x="353" y="476" type="curve" smooth="yes"/>
      <point x="353" y="449"/>
      <point x="371" y="428"/>
      <point x="415" y="418" type="curve"/>
      <point x="431" y="492"/>
      <point x="500" y="629"/>
      <point x="546" y="629" type="curve" smooth="yes"/>
      <point x="558" y="629"/>
      <point x="565" y="620"/>
      <point x="572" y="603" type="curve"/>
      <point x="480" y="464"/>
      <point x="295" y="190"/>
      <point x="161" y="28" type="curve"/>
      <point x="143" y="63"/>
      <point x="135" y="111"/>
      <point x="135" y="158" type="curve" smooth="yes"/>
      <point x="135" y="392"/>
      <point x="334" y="692"/>
      <point x="509" y="692" type="curve" smooth="yes"/>
      <point x="523" y="692" type="line"/>
      <point x="507" y="714"/>
      <point x="484" y="718"/>
      <point x="460" y="718" type="curve" smooth="yes"/>
      <point x="252" y="718"/>
      <point x="30" y="419"/>
      <point x="30" y="166" type="curve" smooth="yes"/>
      <point x="30" y="75"/>
      <point x="59" y="9"/>
      <point x="104" y="-34" type="curve"/>
      <point x="82" y="-58"/>
      <point x="58" y="-79"/>
      <point x="32" y="-96" type="curve"/>
      <point x="47" y="-99"/>
      <point x="59" y="-101"/>
    </contour>
    <contour>
      <point x="273" y="-40" type="curve" smooth="yes"/>
      <point x="247" y="-40"/>
      <point x="228" y="-34"/>
      <point x="211" y="-25" type="curve"/>
      <point x="231" y="-6"/>
      <point x="251" y="19"/>
      <point x="271" y="46" type="curve" smooth="yes"/>
      <point x="308" y="97"/>
      <point x="480" y="339"/>
      <point x="591" y="497" type="curve"/>
      <point x="591" y="268"/>
      <point x="463" y="-40"/>
    </contour>
  </outline>
</glyph>
<glyph name="ae" format="2">
  <advance width="556"/>
  <unicode hex="00E6"/>
  <outline>
    <contour>
      <point x="58" y="-47" type="curve" smooth="yes"/>
      <point x="107" y="-47"/>
      <point x="151" y="-10"/>
      <point x="205" y="56" type="curve"/>
      <point x="214" y="0"/>
      <point x="259" y="-44"/>
      <point x="337" y="-44" type="curve" smooth="yes"/>
      <point x="441" y="-44"/>
      <point x="546" y="34"/>
      <point x="601" y="156" type="curve"/>
      <point x="582" y="172" type="line"/>
      <point x="532" y="78"/>
      <point x="443" y="-1"/>
      <point x="358" y="-1" type="curve" smooth="yes"/>
      <point x="299" y="-1"/>
      <point x="283" y="37"/>
      <point x="281" y="72" type="curve"/>
      <point x="281" y="80"/>
      <point x="281" y="90"/>
      <point x="283" y="100" type="curve"/>
      <point x="403" y="113"/>
      <point x="535" y="193"/>
      <point x="535" y="294" type="curve" smooth="yes"/>
      <point x="535" y="347"/>
      <point x="499" y="360"/>
      <point x="464" y="360" type="curve" smooth="yes"/>
      <point x="421" y="360"/>
      <point x="373" y="338"/>
      <point x="332" y="307" type="curve"/>
      <point x="320" y="330"/>
      <point x="295" y="344"/>
      <point x="259" y="344" type="curve" smooth="yes"/>
      <point x="120" y="344"/>
      <point x="-26" y="158"/>
      <point x="-26" y="41" type="curve" smooth="yes"/>
      <point x="-26" y="-18"/>
      <point x="12" y="-47"/>
    </contour>
    <contour>
      <point x="80" y="8" type="curve" smooth="yes"/>
      <point x="65" y="8"/>
      <point x="58" y="17"/>
      <point x="58" y="39" type="curve" smooth="yes"/>
      <point x="58" y="130"/>
      <point x="164" y="303"/>
      <point x="257" y="303" type="curve" smooth="yes"/>
      <point x="281" y="303"/>
      <point x="294" y="292"/>
      <point x="299" y="276" type="curve"/>
      <point x="250" y="228"/>
      <point x="213" y="163"/>
      <point x="204" y="105" type="curve"/>
      <point x="162" y="53"/>
      <point x="115" y="8"/>
    </contour>
    <contour>
      <point x="293" y="137" type="curve"/>
      <point x="323" y="223"/>
      <point x="402" y="315"/>
      <point x="462" y="315" type="curve" smooth="yes"/>
      <point x="474" y="315"/>
      <point x="478" y="310"/>
      <point x="478" y="301" type="curve" smooth="yes"/>
      <point x="478" y="227"/>
      <point x="366" y="164"/>
    </contour>
  </outline>
</glyph>
<glyph name="thorn" format="2">
  <advance width="415"/>
  <unicode hex="00FE"/>
  <outline>
    <contour>
      <point x="-54" y="-280" type="curve" smooth="yes"/>
      <point x="-50" y="-280"/>
      <point x="-45" y="-278"/>
      <point x="-41" y="-273" type="curve" smooth="yes"/>
      <point x="-7" y="-239"/>
      <point x="36" y="-85"/>
      <point x="87" y="129" type="curve"/>
      <point x="109" y="182"/>
      <point x="181" y="282"/>
      <point x="250" y="282" type="curve" smooth="yes"/>
      <point x="290" y="282"/>
      <point x="305" y="249"/>
      <point x="305" y="211" type="curve" smooth="yes"/>
      <point x="305" y="115"/>
      <point x="210" y="6"/>
      <point x="103" y="6" type="curve" smooth="yes"/>
      <point x="87" y="6"/>
      <point x="70" y="6"/>
      <point x="70" y="-5" type="curve" smooth="yes"/>
      <point x="70" y="-18"/>
      <point x="96" y="-31"/>
      <point x="139" y="-31" type="curve" smooth="yes"/>
      <point x="285" y="-31"/>
      <point x="385" y="118"/>
      <point x="385" y="222" type="curve" smooth="yes"/>
      <point x="385" y="295"/>
      <point x="335" y="342"/>
      <point x="271" y="342" type="curve" smooth="yes"/>
      <point x="200" y="342"/>
      <point x="144" y="284"/>
      <point x="107" y="226" type="curve"/>
      <point x="121" y="309"/>
      <point x="139" y="418"/>
      <point x="139" y="465" type="curve" smooth="yes"/>
      <point x="139" y="510"/>
      <point x="123" y="523"/>
      <point x="85" y="523" type="curve" smooth="yes"/>
      <point x="61" y="523"/>
      <point x="60" y="518"/>
      <point x="58" y="500" type="curve" smooth="yes"/>
      <point x="23" y="155"/>
      <point x="-28" y="-24"/>
      <point x="-92" y="-234" type="curve"/>
      <point x="-92" y="-241"/>
      <point x="-72" y="-280"/>
    </contour>
  </outline>
</glyph>
<glyph name="Hbar" format="2">
  <advance width="664"/>
  <unicode hex="0126"/>
  <outline>
    <contour>
      <point x="72" y="-87" type="curve"/>
      <point x="97" y="-87"/>
      <point x="141" y="-68"/>
      <point x="156" y="-19" type="curve" smooth="yes"/>
      <point x="251" y="285"/>
      <point x="257" y="308"/>
      <point x="354" y="622" type="curve" smooth="yes"/>
      <point x="358" y="635"/>
      <point x="362" y="650"/>
      <point x="362" y="665" type="curve" smooth="yes"/>
      <point x="362" y="693"/>
      <point x="343" y="720"/>
      <point x="280" y="720" type="curve" smooth="yes"/>
      <point x="205" y="720"/>
      <point x="106" y="659"/>
      <point x="106" y="585" type="curve" smooth="yes"/>
      <point x="106" y="555"/>
      <point x="131" y="538"/>
      <point x="176" y="535" type="curve"/>
      <point x="175" y="544"/>
      <point x="175" y="554"/>
      <point x="175" y="563" type="curve" smooth="yes"/>
      <point x="175" y="625"/>
      <point x="230" y="678"/>
      <point x="280" y="678" type="curve" smooth="yes"/>
      <point x="290" y="678"/>
      <point x="293" y="674"/>
      <point x="293" y="664" type="curve" smooth="yes"/>
      <point x="293" y="646"/>
      <point x="283" y="622"/>
      <point x="281" y="616" type="curve" smooth="yes"/>
      <point x="156" y="247"/>
      <point x="103" y="102"/>
    </contour>
    <contour>
      <point x="506" y="-87" type="curve"/>
      <point x="503" y="-71"/>
      <point x="501" y="-55"/>
      <point x="501" y="-34" type="curve" smooth="yes"/>
      <point x="501" y="28"/>
      <point x="516" y="123"/>
      <point x="538" y="226" type="curve" smooth="yes"/>
      <point x="576" y="403"/>
      <point x="634" y="605"/>
      <point x="676" y="721" type="curve"/>
      <point x="628" y="721"/>
      <point x="611" y="681"/>
      <point x="604" y="665" type="curve" smooth="yes"/>
      <point x="567" y="574"/>
      <point x="495" y="356"/>
      <point x="452" y="190" type="curve" smooth="yes"/>
      <point x="432" y="110"/>
      <point x="418" y="43"/>
      <point x="418" y="6" type="curve" smooth="yes"/>
      <point x="418" y="-59"/>
      <point x="438" y="-80"/>
    </contour>
    <contour>
      <point x="111" y="275" type="curve"/>
      <point x="165" y="282"/>
      <point x="265" y="287"/>
      <point x="353" y="287" type="curve" smooth="yes"/>
      <point x="553" y="287"/>
      <point x="611" y="292"/>
      <point x="658" y="342" type="curve"/>
      <point x="528" y="342"/>
      <point x="408" y="354"/>
      <point x="309" y="354" type="curve" smooth="yes"/>
      <point x="204" y="354"/>
      <point x="111" y="343"/>
    </contour>
    <contour>
      <point x="146" y="421" type="curve"/>
      <point x="202" y="433"/>
      <point x="269" y="437"/>
      <point x="394" y="437" type="curve" smooth="yes"/>
      <point x="598" y="437"/>
      <point x="683" y="441"/>
      <point x="693" y="488" type="curve"/>
      <point x="593" y="494"/>
      <point x="490" y="496"/>
      <point x="366" y="496" type="curve" smooth="yes"/>
      <point x="259" y="496"/>
      <point x="149" y="469"/>
    </contour>
  </outline>
</glyph>
<glyph name="kgreenlandic" format="2">
  <advance width="391"/>
  <unicode hex="0138"/>
  <outline>
    <contour>
      <point x="240" y="-38" type="curve" smooth="yes"/>
      <point x="330" y="-38"/>
      <point x="397" y="60"/>
      <point x="433" y="161" type="curve"/>
      <point x="416" y="178" type="line"/>
      <point x="371" y="86"/>
      <point x="322" y="10"/>
      <point x="260" y="10" type="curve" smooth="yes"/>
      <point x="204" y="10"/>
      <point x="173" y="72"/>
      <point x="173" y="124" type="curve" smooth="yes"/>
      <point x="173" y="175"/>
      <point x="200" y="220"/>
      <point x="248" y="220" type="curve" smooth="yes"/>
      <point x="275" y="220"/>
      <point x="289" y="203"/>
      <point x="289" y="177" type="curve"/>
      <point x="329" y="179"/>
      <point x="362" y="195"/>
      <point x="362" y="239" type="curve" smooth="yes"/>
      <point x="362" y="269"/>
      <point x="338" y="292"/>
      <point x="297" y="292" type="curve" smooth="yes"/>
      <point x="223" y="292"/>
      <point x="154" y="225"/>
      <point x="100" y="156" type="curve"/>
      <point x="111" y="196"/>
      <point x="117" y="229"/>
      <point x="117" y="245" type="curve" smooth="yes"/>
      <point x="117" y="264"/>
      <point x="104" y="275"/>
      <point x="82" y="275" type="curve" smooth="yes"/>
      <point x="61" y="275"/>
      <point x="39" y="261"/>
      <point x="30" y="251" type="curve"/>
      <point x="30" y="165"/>
      <point x="-35" y="28"/>
      <point x="-38" y="14" type="curve"/>
      <point x="-22" y="-7"/>
      <point x="2" y="-15"/>
      <point x="27" y="-15" type="curve"/>
      <point x="56" y="33"/>
      <point x="99" y="104"/>
      <point x="145" y="155" type="curve"/>
      <point x="124" y="175" type="line"/>
      <point x="116" y="152"/>
      <point x="113" y="132"/>
      <point x="113" y="107" type="curve" smooth="yes"/>
      <point x="113" y="30"/>
      <point x="162" y="-38"/>
    </contour>
  </outline>
</glyph>
<glyph name="Lslash" format="2">
  <advance width="611"/>
  <unicode hex="0141"/>
  <outline>
    <contour>
      <point x="437" y="-87" type="curve" smooth="yes"/>
      <point x="492" y="-87"/>
      <point x="530" y="-57"/>
      <point x="557" y="18" type="curve"/>
      <point x="526" y="3"/>
      <point x="501" y="-4"/>
      <point x="469" y="-4" type="curve" smooth="yes"/>
      <point x="396" y="-4"/>
      <point x="281" y="31"/>
      <point x="204" y="54" type="curve"/>
      <point x="252" y="122"/>
      <point x="297" y="249"/>
      <point x="338" y="373" type="curve" smooth="yes"/>
      <point x="386" y="520"/>
      <point x="430" y="645"/>
      <point x="507" y="720" type="curve"/>
      <point x="427" y="720"/>
      <point x="349" y="674"/>
      <point x="261" y="389" type="curve" smooth="yes"/>
      <point x="223" y="265"/>
      <point x="183" y="138"/>
      <point x="144" y="70" type="curve"/>
      <point x="98" y="82"/>
      <point x="54" y="90"/>
      <point x="18" y="90" type="curve" smooth="yes"/>
      <point x="-44" y="90"/>
      <point x="-64" y="66"/>
      <point x="-64" y="40" type="curve" smooth="yes"/>
      <point x="-64" y="3"/>
      <point x="-22" y="-53"/>
      <point x="49" y="-53" type="curve" smooth="yes"/>
      <point x="93" y="-53"/>
      <point x="131" y="-32"/>
      <point x="165" y="4" type="curve"/>
      <point x="256" y="-34"/>
      <point x="363" y="-87"/>
    </contour>
    <contour>
      <point x="39" y="-16" type="curve" smooth="yes"/>
      <point x="3" y="-16"/>
      <point x="-28" y="4"/>
      <point x="-28" y="26" type="curve" smooth="yes"/>
      <point x="-28" y="39"/>
      <point x="-18" y="50"/>
      <point x="8" y="50" type="curve" smooth="yes"/>
      <point x="34" y="50"/>
      <point x="72" y="39"/>
      <point x="113" y="24" type="curve"/>
      <point x="91" y="1"/>
      <point x="73" y="-16"/>
    </contour>
    <contour>
      <point x="131" y="328" type="curve"/>
      <point x="231" y="348"/>
      <point x="275" y="353"/>
      <point x="386" y="362" type="curve" smooth="yes"/>
      <point x="507" y="372"/>
      <point x="538" y="374"/>
      <point x="538" y="417" type="curve"/>
      <point x="523" y="418"/>
      <point x="489" y="420"/>
      <point x="462" y="420" type="curve" smooth="yes"/>
      <point x="277" y="420"/>
      <point x="145" y="395"/>
    </contour>
  </outline>
</glyph>
<glyph name="lslash" format="2">
  <advance width="246"/>
  <unicode hex="0142"/>
  <outline>
    <contour>
      <point x="86" y="-30" type="curve" smooth="yes"/>
      <point x="163" y="-30"/>
      <point x="236" y="43"/>
      <point x="293" y="162" type="curve"/>
      <point x="269" y="175" type="line"/>
      <point x="232" y="96"/>
      <point x="174" y="16"/>
      <point x="124" y="16" type="curve" smooth="yes"/>
      <point x="98" y="16"/>
      <point x="81" y="37"/>
      <point x="81" y="85" type="curve" smooth="yes"/>
      <point x="81" y="185"/>
      <point x="128" y="306"/>
      <point x="182" y="421" type="curve" smooth="yes"/>
      <point x="230" y="524"/>
      <point x="288" y="627"/>
      <point x="352" y="720" type="curve"/>
      <point x="298" y="720"/>
      <point x="262" y="689"/>
      <point x="200" y="591" type="curve" smooth="yes"/>
      <point x="106" y="442"/>
      <point x="2" y="205"/>
      <point x="2" y="76" type="curve" smooth="yes"/>
      <point x="2" y="18"/>
      <point x="23" y="-30"/>
    </contour>
    <contour>
      <point x="97" y="627" type="curve"/>
      <point x="168" y="638"/>
      <point x="206" y="641"/>
      <point x="292" y="641" type="curve" smooth="yes"/>
      <point x="422" y="641"/>
      <point x="446" y="640"/>
      <point x="507" y="682" type="curve"/>
      <point x="464" y="685"/>
      <point x="369" y="694"/>
      <point x="292" y="691" type="curve" smooth="yes"/>
      <point x="200" y="687"/>
      <point x="126" y="683"/>
    </contour>
  </outline>
</glyph>
<glyph name="Eng" format="2">
  <advance width="698"/>
  <unicode hex="014A"/>
  <outline>
    <contour>
      <point x="250" y="-244" type="curve" smooth="yes"/>
      <point x="437" y="-244"/>
      <point x="531" y="-78"/>
      <point x="596" y="127" type="curve" smooth="yes"/>
      <point x="641" y="267"/>
      <point x="686" y="435"/>
      <point x="686" y="556" type="curve" smooth="yes"/>
      <point x="686" y="652"/>
      <point x="634" y="708"/>
      <point x="544" y="708" type="curve" smooth="yes"/>
      <point x="447" y="708"/>
      <point x="379" y="644"/>
      <point x="331" y="555" type="curve"/>
      <point x="346" y="594"/>
      <point x="356" y="639"/>
      <point x="356" y="665" type="curve" smooth="yes"/>
      <point x="356" y="693"/>
      <point x="343" y="720"/>
      <point x="300" y="720" type="curve" smooth="yes"/>
      <point x="217" y="720"/>
      <point x="90" y="616"/>
      <point x="90" y="526" type="curve" smooth="yes"/>
      <point x="90" y="487"/>
      <point x="113" y="460"/>
      <point x="169" y="460" type="curve"/>
      <point x="161" y="483"/>
      <point x="159" y="494"/>
      <point x="159" y="505" type="curve" smooth="yes"/>
      <point x="159" y="566"/>
      <point x="215" y="678"/>
      <point x="265" y="678" type="curve" smooth="yes"/>
      <point x="277" y="678"/>
      <point x="280" y="670"/>
      <point x="280" y="658" type="curve" smooth="yes"/>
      <point x="280" y="628"/>
      <point x="271" y="568"/>
      <point x="249" y="494" type="curve" smooth="yes"/>
      <point x="198" y="316"/>
      <point x="97" y="24"/>
      <point x="97" y="-40" type="curve" smooth="yes"/>
      <point x="97" y="-79"/>
      <point x="135" y="-99"/>
      <point x="181" y="-99" type="curve"/>
      <point x="211" y="45"/>
      <point x="254" y="205"/>
      <point x="309" y="393" type="curve" smooth="yes"/>
      <point x="339" y="496"/>
      <point x="404" y="654"/>
      <point x="514" y="654" type="curve" smooth="yes"/>
      <point x="574" y="654"/>
      <point x="597" y="607"/>
      <point x="597" y="545" type="curve" smooth="yes"/>
      <point x="597" y="441"/>
      <point x="561" y="313"/>
      <point x="509" y="132" type="curve" smooth="yes"/>
      <point x="442" y="-83"/>
      <point x="356" y="-210"/>
      <point x="209" y="-210" type="curve" smooth="yes"/>
      <point x="194" y="-210"/>
      <point x="187" y="-214"/>
      <point x="187" y="-221" type="curve" smooth="yes"/>
      <point x="187" y="-233"/>
      <point x="212" y="-244"/>
    </contour>
  </outline>
</glyph>
<glyph name="OE" format="2">
  <advance width="848"/>
  <unicode hex="0152"/>
  <outline>
    <contour>
      <point x="447" y="-88" type="curve" smooth="yes"/>
      <point x="579" y="-88"/>
      <point x="751" y="-71"/>
      <point x="767" y="-29" type="curve"/>
      <point x="755" y="-26"/>
      <point x="747" y="-26"/>
      <point x="737" y="-26" type="curve" smooth="yes"/>
      <point x="704" y="-26"/>
      <point x="642" y="-30"/>
      <point x="613" y="-30" type="curve" smooth="yes"/>
      <point x="555" y="-30"/>
      <point x="509" y="-30"/>
      <point x="461" y="-29" type="curve"/>
      <point x="546" y="33"/>
      <point x="574" y="147"/>
      <point x="608" y="301" type="curve"/>
      <point x="628" y="300"/>
      <point x="643" y="299"/>
      <point x="680" y="299" type="curve" smooth="yes"/>
      <point x="768" y="299"/>
      <point x="819" y="323"/>
      <point x="833" y="361" type="curve"/>
      <point x="780" y="368"/>
      <point x="702" y="371"/>
      <point x="620" y="372" type="curve"/>
      <point x="624" y="405"/>
      <point x="628" y="472"/>
      <point x="628" y="526" type="curve" smooth="yes"/>
      <point x="628" y="551"/>
      <point x="624" y="590"/>
      <point x="618" y="611" type="curve"/>
      <point x="650" y="611"/>
      <point x="672" y="609"/>
      <point x="693" y="609" type="curve" smooth="yes"/>
      <point x="779" y="609"/>
      <point x="864" y="616"/>
      <point x="878" y="656" type="curve"/>
      <point x="834" y="670"/>
      <point x="749" y="675"/>
      <point x="666" y="675" type="curve" smooth="yes"/>
      <point x="625" y="675"/>
      <point x="577" y="674"/>
      <point x="543" y="672" type="curve" smooth="yes"/>
      <point x="469" y="668"/>
      <point x="354" y="548"/>
      <point x="354" y="475" type="curve" smooth="yes"/>
      <point x="354" y="450"/>
      <point x="373" y="429"/>
      <point x="416" y="419" type="curve"/>
      <point x="454" y="515"/>
      <point x="502" y="619"/>
      <point x="531" y="619" type="curve" smooth="yes"/>
      <point x="545" y="619"/>
      <point x="560" y="585"/>
      <point x="560" y="494" type="curve" smooth="yes"/>
      <point x="560" y="265"/>
      <point x="436" y="-39"/>
      <point x="274" y="-39" type="curve" smooth="yes"/>
      <point x="176" y="-39"/>
      <point x="136" y="54"/>
      <point x="136" y="158" type="curve" smooth="yes"/>
      <point x="136" y="393"/>
      <point x="336" y="693"/>
      <point x="525" y="693" type="curve"/>
      <point x="509" y="715"/>
      <point x="485" y="719"/>
      <point x="459" y="719" type="curve" smooth="yes"/>
      <point x="252" y="719"/>
      <point x="32" y="420"/>
      <point x="32" y="164" type="curve" smooth="yes"/>
      <point x="32" y="-8"/>
      <point x="131" y="-87"/>
      <point x="267" y="-87" type="curve" smooth="yes"/>
      <point x="327" y="-87"/>
      <point x="390" y="-88"/>
    </contour>
  </outline>
</glyph>
<glyph name="Tbar" format="2">
  <advance width="541"/>
  <unicode hex="0166"/>
  <outline>
    <contour>
      <point x="62" y="353" type="curve"/>
      <point x="113" y="365"/>
      <point x="175" y="369"/>
      <point x="290" y="369" type="curve" smooth="yes"/>
      <point x="480" y="369"/>
      <point x="559" y="373"/>
      <point x="569" y="420" type="curve"/>
      <point x="481" y="426"/>
      <point x="390" y="428"/>
      <point x="281" y="428" type="curve" smooth="yes"/>
      <point x="174" y="428"/>
      <point x="65" y="401"/>
    </contour>
    <component base="T"/>
  </outline>
</glyph>
<glyph name="Schwa" format="2">
  <advance width="571"/>
  <unicode hex="018F"/>
  <outline>
    <contour>
      <point x="152" y="-87" type="curve" smooth="yes"/>
      <point x="357" y="-87"/>
      <point x="577" y="209"/>
      <point x="577" y="472" type="curve" smooth="yes"/>
      <point x="577" y="602"/>
      <point x="505" y="719"/>
      <point x="354" y="719" type="curve" smooth="yes"/>
      <point x="199" y="719"/>
      <point x="49" y="574"/>
      <point x="49" y="481" type="curve" smooth="yes"/>
      <point x="49" y="446"/>
      <point x="77" y="433"/>
      <point x="110" y="433" type="curve"/>
      <point x="140" y="572"/>
      <point x="235" y="671"/>
      <point x="350" y="671" type="curve" smooth="yes"/>
      <point x="449" y="671"/>
      <point x="480" y="583"/>
      <point x="480" y="481" type="curve" smooth="yes"/>
      <point x="480" y="263"/>
      <point x="300" y="-43"/>
      <point x="158" y="-43" type="curve" smooth="yes"/>
      <point x="125" y="-43"/>
      <point x="106" y="-20"/>
      <point x="106" y="17" type="curve" smooth="yes"/>
      <point x="106" y="183"/>
      <point x="282" y="327"/>
      <point x="493" y="411" type="curve"/>
      <point x="487" y="432" type="line"/>
      <point x="237" y="388"/>
      <point x="9" y="230"/>
      <point x="9" y="49" type="curve" smooth="yes"/>
      <point x="9" y="-30"/>
      <point x="61" y="-87"/>
    </contour>
  </outline>
</glyph>
<glyph name="florin" format="2">
  <advance width="537"/>
  <unicode hex="0192"/>
  <outline>
    <contour>
      <point x="46" y="-225" type="curve" smooth="yes"/>
      <point x="179" y="-225"/>
      <point x="220" y="-106"/>
      <point x="308" y="273" type="curve"/>
      <point x="368" y="273"/>
      <point x="402" y="271"/>
      <point x="436" y="271" type="curve" smooth="yes"/>
      <point x="468" y="271"/>
      <point x="496" y="294"/>
      <point x="525" y="335" type="curve"/>
      <point x="505" y="329"/>
      <point x="484" y="327"/>
      <point x="464" y="327" type="curve" smooth="yes"/>
      <point x="420" y="327"/>
      <point x="379" y="334"/>
      <point x="345" y="334" type="curve"/>
      <point x="458" y="427"/>
      <point x="565" y="568"/>
      <point x="565" y="669" type="curve" smooth="yes"/>
      <point x="565" y="713"/>
      <point x="544" y="720"/>
      <point x="517" y="720" type="curve" smooth="yes"/>
      <point x="377" y="720"/>
      <point x="310" y="536"/>
      <point x="259" y="332" type="curve"/>
      <point x="218" y="327"/>
      <point x="182" y="311"/>
      <point x="176" y="259" type="curve"/>
      <point x="189" y="261"/>
      <point x="222" y="267"/>
      <point x="244" y="269" type="curve"/>
      <point x="189" y="67"/>
      <point x="155" y="-184"/>
      <point x="50" y="-184" type="curve" smooth="yes"/>
      <point x="9" y="-184"/>
      <point x="-20" y="-145"/>
      <point x="-20" y="-97" type="curve" smooth="yes"/>
      <point x="-20" y="-84"/>
      <point x="-18" y="-63"/>
      <point x="-9" y="-35" type="curve"/>
      <point x="-63" y="-52"/>
      <point x="-87" y="-80"/>
      <point x="-87" y="-121" type="curve" smooth="yes"/>
      <point x="-87" y="-183"/>
      <point x="-33" y="-225"/>
    </contour>
    <contour>
      <point x="334" y="364" type="curve"/>
      <point x="383" y="538"/>
      <point x="441" y="640"/>
      <point x="488" y="640" type="curve" smooth="yes"/>
      <point x="500" y="640"/>
      <point x="505" y="633"/>
      <point x="505" y="620" type="curve" smooth="yes"/>
      <point x="505" y="568"/>
      <point x="428" y="446"/>
    </contour>
  </outline>
</glyph>
<glyph name="ellipsis" format="2">
  <advance width="549"/>
  <unicode hex="2026"/>
  <outline>
    <contour>
      <point x="379" y="-10" type="curve" smooth="yes"/>
      <point x="413" y="-10"/>
      <point x="431" y="34"/>
      <point x="431" y="50" type="curve" smooth="yes"/>
      <point x="431" y="74"/>
      <point x="413" y="81"/>
      <point x="398" y="81" type="curve" smooth="yes"/>
      <point x="371" y="81"/>
      <point x="335" y="50"/>
      <point x="335" y="28" type="curve" smooth="yes"/>
      <point x="335" y="10"/>
      <point x="347" y="-10"/>
    </contour>
    <contour>
      <point x="72" y="-10" type="curve" smooth="yes"/>
      <point x="106" y="-10"/>
      <point x="124" y="34"/>
      <point x="124" y="50" type="curve" smooth="yes"/>
      <point x="124" y="74"/>
      <point x="106" y="81"/>
      <point x="91" y="81" type="curve" smooth="yes"/>
      <point x="64" y="81"/>
      <point x="28" y="50"/>
      <point x="28" y="28" type="curve" smooth="yes"/>
      <point x="28" y="10"/>
      <point x="40" y="-10"/>
    </contour>
    <contour>
      <point x="221" y="-10" type="curve" smooth="yes"/>
      <point x="255" y="-10"/>
      <point x="273" y="34"/>
      <point x="273" y="50" type="curve" smooth="yes"/>
      <point x="273" y="74"/>
      <point x="255" y="81"/>
      <point x="240" y="81" type="curve" smooth="yes"/>
      <point x="213" y="81"/>
      <point x="177" y="50"/>
      <point x="177" y="28" type="curve" smooth="yes"/>
      <point x="177" y="10"/>
      <point x="189" y="-10"/>
    </contour>
  </outline>
</glyph>
<glyph name="perthousand" format="2">
  <advance width="1029"/>
  <unicode hex="2030"/>
  <outline>
    <contour>
      <point x="89" y="-87" type="curve"/>
      <point x="166" y="-87"/>
      <point x="230" y="-13"/>
      <point x="301" y="97" type="curve" smooth="yes"/>
      <point x="389" y="233"/>
      <point x="611" y="654"/>
      <point x="627" y="720" type="curve"/>
      <point x="591" y="720"/>
      <point x="543" y="692"/>
      <point x="535" y="671" type="curve" smooth="yes"/>
      <point x="465" y="490"/>
      <point x="189" y="10"/>
    </contour>
    <contour>
      <point x="204" y="339" type="curve" smooth="yes"/>
      <point x="299" y="339"/>
      <point x="360" y="475"/>
      <point x="360" y="561" type="curve" smooth="yes"/>
      <point x="360" y="627"/>
      <point x="320" y="670"/>
      <point x="263" y="670" type="curve" smooth="yes"/>
      <point x="169" y="670"/>
      <point x="110" y="543"/>
      <point x="110" y="453" type="curve" smooth="yes"/>
      <point x="110" y="393"/>
      <point x="141" y="339"/>
    </contour>
    <contour>
      <point x="210" y="391" type="curve" smooth="yes"/>
      <point x="191" y="391"/>
      <point x="181" y="416"/>
      <point x="181" y="451" type="curve" smooth="yes"/>
      <point x="181" y="511"/>
      <point x="210" y="620"/>
      <point x="265" y="620" type="curve" smooth="yes"/>
      <point x="285" y="620"/>
      <point x="293" y="598"/>
      <point x="293" y="566" type="curve" smooth="yes"/>
      <point x="293" y="494"/>
      <point x="256" y="391"/>
    </contour>
    <contour>
      <point x="549" y="-1" type="curve" smooth="yes"/>
      <point x="644" y="-1"/>
      <point x="704" y="135"/>
      <point x="704" y="220" type="curve" smooth="yes"/>
      <point x="704" y="286"/>
      <point x="665" y="329"/>
      <point x="608" y="329" type="curve" smooth="yes"/>
      <point x="512" y="329"/>
      <point x="455" y="202"/>
      <point x="455" y="112" type="curve" smooth="yes"/>
      <point x="455" y="52"/>
      <point x="485" y="-1"/>
    </contour>
    <contour>
      <point x="554" y="51" type="curve" smooth="yes"/>
      <point x="536" y="51"/>
      <point x="525" y="73"/>
      <point x="525" y="108" type="curve" smooth="yes"/>
      <point x="525" y="168"/>
      <point x="553" y="280"/>
      <point x="609" y="280" type="curve" smooth="yes"/>
      <point x="629" y="280"/>
      <point x="638" y="257"/>
      <point x="638" y="225" type="curve" smooth="yes"/>
      <point x="638" y="153"/>
      <point x="600" y="51"/>
    </contour>
    <contour>
      <point x="837" y="-1" type="curve" smooth="yes"/>
      <point x="932" y="-1"/>
      <point x="992" y="135"/>
      <point x="992" y="220" type="curve" smooth="yes"/>
      <point x="992" y="286"/>
      <point x="953" y="329"/>
      <point x="896" y="329" type="curve" smooth="yes"/>
      <point x="800" y="329"/>
      <point x="743" y="202"/>
      <point x="743" y="112" type="curve" smooth="yes"/>
      <point x="743" y="52"/>
      <point x="773" y="-1"/>
    </contour>
    <contour>
      <point x="842" y="51" type="curve" smooth="yes"/>
      <point x="824" y="51"/>
      <point x="813" y="73"/>
      <point x="813" y="108" type="curve" smooth="yes"/>
      <point x="813" y="168"/>
      <point x="841" y="280"/>
      <point x="897" y="280" type="curve" smooth="yes"/>
      <point x="917" y="280"/>
      <point x="926" y="257"/>
      <point x="926" y="225" type="curve" smooth="yes"/>
      <point x="926" y="153"/>
      <point x="888" y="51"/>
    </contour>
  </outline>
</glyph>
<glyph name="guilsinglleft" format="2">
  <advance width="324"/>
  <unicode hex="2039"/>
  <outline>
    <contour>
      <point x="195" y="41" type="curve" smooth="yes"/>
      <point x="211" y="41"/>
      <point x="228" y="55"/>
      <point x="239" y="67" type="curve"/>
      <point x="144" y="101"/>
      <point x="115" y="119"/>
      <point x="76" y="147" type="curve"/>
      <point x="145" y="182"/>
      <point x="235" y="233"/>
      <point x="235" y="287" type="curve" smooth="yes"/>
      <point x="235" y="294"/>
      <point x="231" y="309"/>
      <point x="221" y="321" type="curve"/>
      <point x="181" y="267"/>
      <point x="98" y="187"/>
      <point x="25" y="158" type="curve"/>
      <point x="38" y="116"/>
      <point x="145" y="41"/>
    </contour>
  </outline>
</glyph>
<glyph name="guilsinglright" format="2">
  <advance width="338"/>
  <unicode hex="203A"/>
  <outline>
    <contour>
      <point x="111" y="41" type="curve" smooth="yes"/>
      <point x="161" y="41"/>
      <point x="268" y="116"/>
      <point x="281" y="158" type="curve"/>
      <point x="208" y="187"/>
      <point x="125" y="267"/>
      <point x="85" y="321" type="curve"/>
      <point x="74" y="307"/>
      <point x="71" y="292"/>
      <point x="71" y="285" type="curve" smooth="yes"/>
      <point x="71" y="233"/>
      <point x="163" y="181"/>
      <point x="230" y="147" type="curve"/>
      <point x="191" y="119"/>
      <point x="162" y="101"/>
      <point x="67" y="67" type="curve"/>
      <point x="78" y="55"/>
      <point x="95" y="41"/>
    </contour>
  </outline>
</glyph>
<glyph name="fraction" format="2">
  <advance width="224"/>
  <unicode hex="2044"/>
  <outline>
    <contour>
      <point x="-160" y="-87" type="curve"/>
      <point x="-84" y="-87"/>
      <point x="-19" y="-13"/>
      <point x="52" y="97" type="curve" smooth="yes"/>
      <point x="139" y="233"/>
      <point x="362" y="654"/>
      <point x="384" y="710" type="curve"/>
      <point x="378" y="711"/>
      <point x="372" y="712"/>
      <point x="365" y="712" type="curve" smooth="yes"/>
      <point x="328" y="712"/>
      <point x="292" y="689"/>
      <point x="285" y="671" type="curve" smooth="yes"/>
      <point x="215" y="491"/>
      <point x="-60" y="10"/>
    </contour>
  </outline>
</glyph>
<glyph name="colonsign" format="2">
  <advance width="600"/>
  <unicode hex="20A1"/>
  <outline>
    <contour>
      <point x="250" y="-55.56" type="curve" smooth="yes"/>
      <point x="392" y="-55.56"/>
      <point x="507" y="42.12"/>
      <point x="577" y="160.04" type="curve"/>
      <point x="551" y="175" type="line"/>
      <point x="497" y="75.56"/>
      <point x="382" y="-13.32"/>
      <point x="274" y="-13.32" type="curve" smooth="yes"/>
      <point x="169" y="-13.32"/>
      <point x="129" y="69.4"/>
      <point x="129" y="153.88" type="curve" smooth="yes"/>
      <point x="129" y="345.72"/>
      <point x="311" y="615"/>
      <point x="454" y="615" type="curve" smooth="yes"/>
      <point x="487" y="615"/>
      <point x="499" y="602"/>
      <point x="499" y="581" type="curve" smooth="yes"/>
      <point x="499" y="538"/>
      <point x="457" y="465"/>
      <point x="457" y="432" type="curve" smooth="yes"/>
      <point x="457" y="401"/>
      <point x="481" y="389"/>
      <point x="505" y="383" type="curve"/>
      <point x="534" y="435"/>
      <point x="561" y="503"/>
      <point x="561" y="573.64" type="curve" smooth="yes"/>
      <point x="561" y="631.72"/>
      <point x="516" y="653.72"/>
      <point x="457" y="653.72" type="curve" smooth="yes"/>
      <point x="252" y="653.72"/>
      <point x="32" y="393.24"/>
      <point x="32" y="161.8" type="curve" smooth="yes"/>
      <point x="32" y="53.56"/>
      <point x="97" y="-55.56"/>
    </contour>
    <contour>
      <point x="81" y="-162" type="curve"/>
      <point x="199" y="-162"/>
      <point x="222" y="24"/>
      <point x="278" y="303" type="curve" smooth="yes"/>
      <point x="306" y="443"/>
      <point x="327" y="581"/>
      <point x="352" y="720" type="curve"/>
      <point x="309" y="710"/>
      <point x="303" y="695"/>
      <point x="288" y="632" type="curve" smooth="yes"/>
      <point x="270" y="555"/>
      <point x="250" y="438"/>
      <point x="225" y="321" type="curve" smooth="yes"/>
      <point x="186" y="138"/>
      <point x="132" y="-98"/>
    </contour>
    <contour>
      <point x="191" y="-162" type="curve"/>
      <point x="309" y="-162"/>
      <point x="333" y="16"/>
      <point x="388" y="303" type="curve" smooth="yes"/>
      <point x="415" y="443"/>
      <point x="437" y="581"/>
      <point x="462" y="720" type="curve"/>
      <point x="419" y="710"/>
      <point x="413" y="695"/>
      <point x="398" y="632" type="curve" smooth="yes"/>
      <point x="380" y="555"/>
      <point x="360" y="438"/>
      <point x="335" y="321" type="curve" smooth="yes"/>
      <point x="296" y="138"/>
      <point x="242" y="-98"/>
    </contour>
  </outline>
</glyph>
<glyph name="franc" format="2">
  <advance width="494"/>
  <unicode hex="20A3"/>
  <outline>
    <contour>
      <point x="17" y="151" type="curve"/>
      <point x="59" y="161"/>
      <point x="110" y="164"/>
      <point x="186" y="164" type="curve" smooth="yes"/>
      <point x="314" y="164"/>
      <point x="368" y="167"/>
      <point x="374" y="202" type="curve"/>
      <point x="315" y="212"/>
      <point x="254" y="217"/>
      <point x="180" y="217" type="curve" smooth="yes"/>
      <point x="100" y="217"/>
      <point x="19" y="193"/>
    </contour>
    <component base="F.salt" yScale="0.88" yOffset="20"/>
  </outline>
</glyph>
<glyph name="won" format="2">
  <advance width="1117"/>
  <unicode hex="20A9"/>
  <outline>
    <contour>
      <point x="75" y="213" type="curve"/>
      <point x="183" y="225"/>
      <point x="269" y="231"/>
      <point x="370" y="231" type="curve" smooth="yes"/>
      <point x="457" y="231"/>
      <point x="690" y="227"/>
      <point x="836" y="227" type="curve" smooth="yes"/>
      <point x="919" y="227"/>
      <point x="1025" y="228"/>
      <point x="1053" y="277" type="curve"/>
      <point x="902" y="277"/>
      <point x="721" y="294"/>
      <point x="496" y="294" type="curve" smooth="yes"/>
      <point x="259" y="294"/>
      <point x="83" y="279"/>
    </contour>
    <contour>
      <point x="119" y="382" type="curve"/>
      <point x="227" y="394"/>
      <point x="313" y="400"/>
      <point x="414" y="400" type="curve" smooth="yes"/>
      <point x="501" y="400"/>
      <point x="734" y="395"/>
      <point x="880" y="395" type="curve" smooth="yes"/>
      <point x="963" y="395"/>
      <point x="1069" y="396"/>
      <point x="1097" y="446" type="curve"/>
      <point x="946" y="446"/>
      <point x="765" y="462"/>
      <point x="540" y="462" type="curve" smooth="yes"/>
      <point x="303" y="462"/>
      <point x="127" y="447"/>
    </contour>
    <component base="W" yScale="0.9" yOffset="21"/>
  </outline>
</glyph>
<glyph name="euro" format="2">
  <advance width="730"/>
  <unicode hex="20AC"/>
  <outline>
    <contour>
      <point x="341" y="-87" type="curve" smooth="yes"/>
      <point x="486" y="-87"/>
      <point x="616" y="26"/>
      <point x="686" y="158" type="curve"/>
      <point x="659" y="175" type="line"/>
      <point x="605" y="62"/>
      <point x="475" y="-39"/>
      <point x="365" y="-39" type="curve" smooth="yes"/>
      <point x="251" y="-39"/>
      <point x="237" y="69"/>
      <point x="237" y="170" type="curve"/>
      <point x="379" y="172"/>
      <point x="399" y="173"/>
      <point x="432" y="217" type="curve"/>
      <point x="358" y="219"/>
      <point x="312" y="229"/>
      <point x="245" y="233" type="curve"/>
      <point x="252" y="267" type="line"/>
      <point x="398" y="270"/>
      <point x="418" y="271"/>
      <point x="451" y="315" type="curve"/>
      <point x="381" y="317"/>
      <point x="334" y="325"/>
      <point x="271" y="330" type="curve"/>
      <point x="330" y="506"/>
      <point x="460" y="675"/>
      <point x="569" y="675" type="curve" smooth="yes"/>
      <point x="602" y="675"/>
      <point x="614" y="660"/>
      <point x="614" y="637" type="curve" smooth="yes"/>
      <point x="614" y="581"/>
      <point x="545" y="486"/>
      <point x="505" y="442" type="curve"/>
      <point x="517" y="419"/>
      <point x="532" y="411"/>
      <point x="546" y="411" type="curve" smooth="yes"/>
      <point x="607" y="411"/>
      <point x="669" y="549"/>
      <point x="669" y="627" type="curve" smooth="yes"/>
      <point x="669" y="694"/>
      <point x="624" y="719"/>
      <point x="565" y="719" type="curve" smooth="yes"/>
      <point x="406" y="719"/>
      <point x="232" y="536"/>
      <point x="166" y="331" type="curve"/>
      <point x="104" y="326"/>
      <point x="48" y="309"/>
      <point x="48" y="252" type="curve"/>
      <point x="86" y="260"/>
      <point x="120" y="264"/>
      <point x="149" y="265" type="curve"/>
      <point x="144" y="232" type="line"/>
      <point x="79" y="228"/>
      <point x="31" y="209"/>
      <point x="30" y="153" type="curve"/>
      <point x="90" y="163"/>
      <point x="115" y="162"/>
      <point x="137" y="164" type="curve"/>
      <point x="140" y="32"/>
      <point x="193" y="-87"/>
    </contour>
  </outline>
</glyph>
<glyph name="guarani" format="2">
  <advance width="586"/>
  <unicode hex="20B2"/>
  <outline>
    <contour>
      <point x="488" y="-60.84" type="curve"/>
      <point x="487" y="-24.76"/>
      <point x="485" y="-1.88"/>
      <point x="485" y="21.88" type="curve" smooth="yes"/>
      <point x="485" y="77.32"/>
      <point x="496" y="109.88"/>
      <point x="552" y="262.12" type="curve"/>
      <point x="511" y="282"/>
      <point x="468" y="300"/>
      <point x="428" y="300" type="curve" smooth="yes"/>
      <point x="393" y="300"/>
      <point x="367" y="281"/>
      <point x="363" y="245" type="curve"/>
      <point x="379" y="246"/>
      <point x="394" y="247"/>
      <point x="408" y="247" type="curve" smooth="yes"/>
      <point x="429" y="247"/>
      <point x="444" y="244"/>
      <point x="461" y="237.48" type="curve"/>
      <point x="450" y="125.72"/>
      <point x="372" y="-13.32"/>
      <point x="262" y="-13.32" type="curve" smooth="yes"/>
      <point x="188" y="-13.32"/>
      <point x="128" y="49.16"/>
      <point x="128" y="155.64" type="curve" smooth="yes"/>
      <point x="128" y="342.2"/>
      <point x="312" y="615"/>
      <point x="463" y="615" type="curve" smooth="yes"/>
      <point x="501" y="615"/>
      <point x="517" y="597.4"/>
      <point x="517" y="573.64" type="curve" smooth="yes"/>
      <point x="517" y="530.52"/>
      <point x="466" y="463.64"/>
      <point x="437" y="446.04" type="curve"/>
      <point x="450" y="424.04"/>
      <point x="463" y="417"/>
      <point x="479" y="417" type="curve" smooth="yes"/>
      <point x="531" y="417"/>
      <point x="573" y="487.4"/>
      <point x="573" y="549.88" type="curve" smooth="yes"/>
      <point x="573" y="604.44"/>
      <point x="541" y="653.72"/>
      <point x="454" y="653.72" type="curve" smooth="yes"/>
      <point x="252" y="653.72"/>
      <point x="32" y="391.48"/>
      <point x="32" y="165.32" type="curve" smooth="yes"/>
      <point x="32" y="25.4"/>
      <point x="125" y="-55.56"/>
      <point x="238" y="-55.56" type="curve" smooth="yes"/>
      <point x="314" y="-55.56"/>
      <point x="374" y="-19.48"/>
      <point x="421" y="30.68" type="curve"/>
      <point x="420" y="24.52"/>
      <point x="420" y="19.24"/>
      <point x="420" y="13.08" type="curve" smooth="yes"/>
      <point x="420" y="-16.84"/>
      <point x="427" y="-54.68"/>
    </contour>
    <contour>
      <point x="131" y="-162" type="curve"/>
      <point x="254" y="-162"/>
      <point x="284" y="16"/>
      <point x="336" y="303" type="curve" smooth="yes"/>
      <point x="361" y="442"/>
      <point x="380" y="581"/>
      <point x="402" y="720" type="curve"/>
      <point x="359" y="710"/>
      <point x="353" y="695"/>
      <point x="338" y="632" type="curve" smooth="yes"/>
      <point x="320" y="555"/>
      <point x="300" y="438"/>
      <point x="275" y="321" type="curve" smooth="yes"/>
      <point x="236" y="138"/>
      <point x="182" y="-98"/>
    </contour>
  </outline>
</glyph>
<glyph name="liraTurkish" format="2">
  <advance width="624"/>
  <unicode hex="20BA"/>
  <outline>
    <contour>
      <point x="191" y="-57" type="curve" smooth="yes"/>
      <point x="261" y="-57"/>
      <point x="330" y="-42"/>
      <point x="409" y="10" type="curve" smooth="yes"/>
      <point x="473" y="52"/>
      <point x="528" y="110"/>
      <point x="528" y="150" type="curve" smooth="yes"/>
      <point x="528" y="187"/>
      <point x="510" y="199"/>
      <point x="483" y="199" type="curve"/>
      <point x="414" y="75"/>
      <point x="312" y="-20"/>
      <point x="201" y="-20" type="curve" smooth="yes"/>
      <point x="184" y="-20"/>
      <point x="162" y="-18"/>
      <point x="151" y="-14" type="curve"/>
      <point x="192" y="175"/>
      <point x="281" y="462"/>
      <point x="364" y="650" type="curve"/>
      <point x="349" y="660"/>
      <point x="336" y="664"/>
      <point x="326" y="664" type="curve" smooth="yes"/>
      <point x="280" y="664"/>
      <point x="249" y="589"/>
      <point x="241" y="567" type="curve" smooth="yes"/>
      <point x="212" y="492"/>
      <point x="82" y="89"/>
      <point x="70" y="-7" type="curve"/>
      <point x="101" y="-48"/>
      <point x="144" y="-57"/>
    </contour>
    <contour>
      <point x="16" y="177" type="curve"/>
      <point x="66" y="201"/>
      <point x="130" y="220"/>
      <point x="251" y="260" type="curve" smooth="yes"/>
      <point x="414" y="314"/>
      <point x="501" y="342"/>
      <point x="514" y="397" type="curve"/>
      <point x="442" y="382"/>
      <point x="356" y="358"/>
      <point x="257" y="327" type="curve" smooth="yes"/>
      <point x="110" y="281"/>
      <point x="16" y="238"/>
    </contour>
    <contour>
      <point x="46" y="307" type="curve"/>
      <point x="92" y="336"/>
      <point x="151" y="358"/>
      <point x="264" y="393" type="curve" smooth="yes"/>
      <point x="464" y="458"/>
      <point x="544" y="486"/>
      <point x="544" y="527" type="curve"/>
      <point x="471" y="516"/>
      <point x="396" y="501"/>
      <point x="308" y="471" type="curve" smooth="yes"/>
      <point x="148" y="417"/>
      <point x="76" y="388"/>
    </contour>
  </outline>
</glyph>
<glyph name="ruble" format="2">
  <advance width="600"/>
  <unicode hex="20BD"/>
  <outline>
    <contour>
      <point x="117" y="-56" type="curve"/>
      <point x="239" y="315"/>
      <point x="275" y="473"/>
      <point x="363" y="624" type="curve"/>
      <point x="455" y="620"/>
      <point x="545" y="574"/>
      <point x="545" y="469" type="curve" smooth="yes"/>
      <point x="545" y="341"/>
      <point x="378" y="288"/>
      <point x="229" y="282" type="curve" smooth="yes"/>
      <point x="169" y="282"/>
      <point x="97" y="295"/>
      <point x="32" y="309" type="curve"/>
      <point x="32" y="259"/>
      <point x="68" y="244"/>
      <point x="217" y="244" type="curve" smooth="yes"/>
      <point x="291" y="244"/>
      <point x="628" y="265"/>
      <point x="628" y="454" type="curve" smooth="yes"/>
      <point x="628" y="588"/>
      <point x="475" y="655"/>
      <point x="349" y="655" type="curve" smooth="yes"/>
      <point x="260" y="655"/>
      <point x="169" y="626"/>
      <point x="114" y="605" type="curve"/>
      <point x="114" y="593"/>
      <point x="141" y="571"/>
      <point x="152" y="571" type="curve" smooth="yes"/>
      <point x="167" y="571"/>
      <point x="210" y="602"/>
      <point x="286" y="617" type="curve"/>
      <point x="185" y="420"/>
      <point x="130" y="266"/>
      <point x="47" y="44" type="curve" smooth="yes"/>
      <point x="41" y="28"/>
      <point x="34" y="10"/>
      <point x="34" y="-5" type="curve" smooth="yes"/>
      <point x="34" y="-34"/>
      <point x="77" y="-56"/>
    </contour>
    <contour>
      <point x="-24" y="111" type="curve"/>
      <point x="19" y="121"/>
      <point x="68" y="124"/>
      <point x="163" y="124" type="curve" smooth="yes"/>
      <point x="337" y="124"/>
      <point x="409" y="127"/>
      <point x="417" y="162" type="curve"/>
      <point x="353" y="171"/>
      <point x="286" y="176"/>
      <point x="206" y="176" type="curve" smooth="yes"/>
      <point x="75" y="176"/>
      <point x="-20" y="158"/>
    </contour>
  </outline>
</glyph>
<glyph name="minus" format="2">
  <advance width="516"/>
  <unicode hex="2212"/>
  <outline>
    <contour>
      <point x="70" y="145" type="line"/>
      <point x="128" y="154"/>
      <point x="157" y="155"/>
      <point x="215" y="155" type="curve" smooth="yes"/>
      <point x="312" y="155" type="line" smooth="yes"/>
      <point x="340" y="155"/>
      <point x="385" y="162"/>
      <point x="434" y="195" type="curve"/>
      <point x="398" y="199"/>
      <point x="316" y="206"/>
      <point x="249" y="206" type="curve" smooth="yes"/>
      <point x="154" y="206"/>
      <point x="77" y="197"/>
      <point x="62" y="157" type="curve"/>
    </contour>
  </outline>
</glyph>
<glyph name="approxequal" format="2">
  <advance width="482"/>
  <unicode hex="2248"/>
  <outline>
    <contour>
      <point x="62" y="186" type="curve"/>
      <point x="85" y="210"/>
      <point x="109" y="219"/>
      <point x="134" y="219" type="curve" smooth="yes"/>
      <point x="194" y="219"/>
      <point x="254" y="183"/>
      <point x="309" y="183" type="curve" smooth="yes"/>
      <point x="342" y="183"/>
      <point x="385" y="192"/>
      <point x="400" y="248" type="curve"/>
      <point x="378" y="237"/>
      <point x="356" y="231"/>
      <point x="334" y="231" type="curve" smooth="yes"/>
      <point x="266" y="231"/>
      <point x="208" y="268"/>
      <point x="157" y="268" type="curve" smooth="yes"/>
      <point x="123" y="268"/>
      <point x="78" y="249"/>
    </contour>
    <contour>
      <point x="62" y="100" type="curve"/>
      <point x="85" y="118"/>
      <point x="109" y="125"/>
      <point x="134" y="125" type="curve" smooth="yes"/>
      <point x="194" y="125"/>
      <point x="254" y="89"/>
      <point x="309" y="89" type="curve" smooth="yes"/>
      <point x="342" y="89"/>
      <point x="385" y="100"/>
      <point x="400" y="162" type="curve"/>
      <point x="378" y="145"/>
      <point x="356" y="136"/>
      <point x="334" y="136" type="curve" smooth="yes"/>
      <point x="266" y="136"/>
      <point x="208" y="173"/>
      <point x="157" y="173" type="curve" smooth="yes"/>
      <point x="123" y="173"/>
      <point x="78" y="156"/>
    </contour>
  </outline>
</glyph>
<glyph name="notequal" format="2">
  <advance width="517"/>
  <unicode hex="2260"/>
  <outline>
    <contour>
      <point x="145" y="19" type="curve"/>
      <point x="196" y="48"/>
      <point x="223" y="75"/>
      <point x="275" y="198" type="curve" smooth="yes"/>
      <point x="300" y="257"/>
      <point x="318" y="285"/>
      <point x="355" y="338" type="curve"/>
      <point x="307" y="333"/>
      <point x="271" y="309"/>
      <point x="215" y="191" type="curve" smooth="yes"/>
      <point x="186" y="130"/>
      <point x="157" y="53"/>
    </contour>
    <contour>
      <point x="63" y="106" type="curve"/>
      <point x="121" y="115"/>
      <point x="160" y="116"/>
      <point x="218" y="116" type="curve" smooth="yes"/>
      <point x="314" y="116" type="line" smooth="yes"/>
      <point x="342" y="116"/>
      <point x="388" y="123"/>
      <point x="436" y="156" type="curve"/>
      <point x="400" y="160"/>
      <point x="318" y="167"/>
      <point x="251" y="167" type="curve" smooth="yes"/>
      <point x="156" y="167"/>
      <point x="67.57770876399967" y="160.93250516799594"/>
    </contour>
    <contour>
      <point x="60" y="194" type="curve"/>
      <point x="118" y="203"/>
      <point x="157" y="204"/>
      <point x="215" y="204" type="curve" smooth="yes"/>
      <point x="312" y="204" type="line" smooth="yes"/>
      <point x="340" y="204"/>
      <point x="385" y="211"/>
      <point x="434" y="244" type="curve"/>
      <point x="398" y="248"/>
      <point x="316" y="255"/>
      <point x="249" y="255" type="curve" smooth="yes"/>
      <point x="154" y="255"/>
      <point x="69.02312781631692" y="248.13876689790146"/>
    </contour>
  </outline>
</glyph>
<glyph name="lessequal" format="2">
  <advance width="364"/>
  <unicode hex="2264"/>
  <outline>
    <contour>
      <point x="220" y="107" type="curve" smooth="yes"/>
      <point x="239" y="107"/>
      <point x="254" y="121"/>
      <point x="263" y="132" type="curve"/>
      <point x="178" y="160"/>
      <point x="153" y="175"/>
      <point x="111" y="202" type="curve"/>
      <point x="169" y="221"/>
      <point x="262" y="271"/>
      <point x="262" y="320" type="curve" smooth="yes"/>
      <point x="262" y="331"/>
      <point x="258" y="339"/>
      <point x="251" y="344" type="curve"/>
      <point x="202" y="291"/>
      <point x="127" y="244"/>
      <point x="61" y="221" type="curve"/>
      <point x="71" y="181"/>
      <point x="172" y="107"/>
    </contour>
    <contour>
      <point x="55" y="40" type="curve"/>
      <point x="72" y="43"/>
      <point x="92" y="45"/>
      <point x="109" y="45" type="curve" smooth="yes"/>
      <point x="132" y="45"/>
      <point x="172" y="42"/>
      <point x="203" y="42" type="curve" smooth="yes"/>
      <point x="242" y="42"/>
      <point x="265" y="49"/>
      <point x="279" y="77" type="curve"/>
      <point x="256" y="74"/>
      <point x="183" y="81"/>
      <point x="155" y="81" type="curve" smooth="yes"/>
      <point x="105" y="82"/>
      <point x="66" y="73"/>
    </contour>
  </outline>
</glyph>
<glyph name="fi" format="2">
  <advance width="575"/>
  <unicode hex="FB01"/>
  <outline>
    <contour>
      <point x="-1" y="-280" type="curve" smooth="yes"/>
      <point x="85" y="-280"/>
      <point x="160" y="-93"/>
      <point x="160" y="76" type="curve" smooth="yes"/>
      <point x="160" y="92"/>
      <point x="157" y="111"/>
      <point x="155" y="128" type="curve"/>
      <point x="179" y="120"/>
      <point x="201" y="116"/>
      <point x="220" y="116" type="curve" smooth="yes"/>
      <point x="260" y="116"/>
      <point x="302" y="131"/>
      <point x="339" y="155" type="curve"/>
      <point x="328" y="118"/>
      <point x="322" y="83"/>
      <point x="322" y="60" type="curve" smooth="yes"/>
      <point x="322" y="10"/>
      <point x="353" y="-30"/>
      <point x="411" y="-30" type="curve" smooth="yes"/>
      <point x="495" y="-30"/>
      <point x="574" y="41"/>
      <point x="620" y="160" type="curve"/>
      <point x="604" y="175" type="line"/>
      <point x="544" y="59"/>
      <point x="491" y="19"/>
      <point x="446" y="19" type="curve" smooth="yes"/>
      <point x="415" y="19"/>
      <point x="399" y="29"/>
      <point x="399" y="73" type="curve" smooth="yes"/>
      <point x="399" y="162"/>
      <point x="503" y="279"/>
      <point x="503" y="315" type="curve" smooth="yes"/>
      <point x="503" y="334"/>
      <point x="490" y="344"/>
      <point x="473" y="344" type="curve" smooth="yes"/>
      <point x="432" y="344"/>
      <point x="391" y="284"/>
      <point x="362" y="218" type="curve"/>
      <point x="328" y="184"/>
      <point x="281" y="156"/>
      <point x="237" y="156" type="curve" smooth="yes"/>
      <point x="201" y="156"/>
      <point x="168" y="177"/>
      <point x="148" y="235" type="curve"/>
      <point x="143" y="246"/>
      <point x="135" y="256"/>
      <point x="125" y="261" type="curve"/>
      <point x="129" y="275"/>
      <point x="134" y="283"/>
      <point x="139" y="295" type="curve"/>
      <point x="274" y="386"/>
      <point x="412" y="554"/>
      <point x="412" y="670" type="curve" smooth="yes"/>
      <point x="412" y="697"/>
      <point x="404" y="720"/>
      <point x="370" y="720" type="curve" smooth="yes"/>
      <point x="189" y="720"/>
      <point x="-66" y="17"/>
      <point x="-66" y="-186" type="curve" smooth="yes"/>
      <point x="-66" y="-265"/>
      <point x="-24" y="-280"/>
    </contour>
    <contour>
      <point x="26" y="-218" type="curve" smooth="yes"/>
      <point x="16" y="-218"/>
      <point x="11" y="-201"/>
      <point x="11" y="-173" type="curve" smooth="yes"/>
      <point x="11" y="-104"/>
      <point x="45" y="34"/>
      <point x="96" y="177" type="curve"/>
      <point x="113" y="152"/>
      <point x="120" y="114"/>
      <point x="120" y="71" type="curve" smooth="yes"/>
      <point x="120" y="-53"/>
      <point x="62" y="-218"/>
    </contour>
    <contour>
      <point x="168" y="366" type="curve"/>
      <point x="232" y="518"/>
      <point x="303" y="639"/>
      <point x="352" y="639" type="curve" smooth="yes"/>
      <point x="357" y="639"/>
      <point x="360" y="638"/>
      <point x="360" y="632" type="curve" smooth="yes"/>
      <point x="360" y="594"/>
      <point x="286" y="476"/>
    </contour>
    <contour>
      <point x="528" y="422" type="curve" smooth="yes"/>
      <point x="566" y="422"/>
      <point x="600" y="454"/>
      <point x="600" y="482" type="curve" smooth="yes"/>
      <point x="600" y="510"/>
      <point x="584" y="520"/>
      <point x="559" y="520" type="curve" smooth="yes"/>
      <point x="522" y="520"/>
      <point x="478" y="493"/>
      <point x="478" y="461" type="curve" smooth="yes"/>
      <point x="478" y="434"/>
      <point x="502" y="422"/>
    </contour>
  </outline>
</glyph>
<glyph name="fl" format="2">
  <advance width="574"/>
  <unicode hex="FB02"/>
  <outline>
    <contour>
      <point x="-1" y="-280" type="curve" smooth="yes"/>
      <point x="85" y="-280"/>
      <point x="160" y="-93"/>
      <point x="160" y="76" type="curve" smooth="yes"/>
      <point x="160.0" y="87"/>
      <point x="158" y="99"/>
      <point x="158" y="111" type="curve"/>
      <point x="181" y="101"/>
      <point x="204" y="96"/>
      <point x="226" y="96" type="curve" smooth="yes"/>
      <point x="261" y="96"/>
      <point x="298" y="105"/>
      <point x="333" y="122" type="curve"/>
      <point x="331" y="109"/>
      <point x="330" y="98"/>
      <point x="330" y="87" type="curve" smooth="yes"/>
      <point x="330" y="19"/>
      <point x="352" y="-34"/>
      <point x="422" y="-34" type="curve" smooth="yes"/>
      <point x="500" y="-34"/>
      <point x="568" y="39"/>
      <point x="625" y="158" type="curve"/>
      <point x="600" y="172" type="line"/>
      <point x="565" y="94"/>
      <point x="505" y="12"/>
      <point x="452" y="12" type="curve" smooth="yes"/>
      <point x="427" y="12"/>
      <point x="410" y="34"/>
      <point x="410" y="81" type="curve" smooth="yes"/>
      <point x="410" y="109"/>
      <point x="415" y="146"/>
      <point x="422" y="181" type="curve"/>
      <point x="575" y="303"/>
      <point x="692" y="550"/>
      <point x="692" y="640" type="curve" smooth="yes"/>
      <point x="692" y="670"/>
      <point x="674" y="720"/>
      <point x="649" y="720" type="curve" smooth="yes"/>
      <point x="586" y="720"/>
      <point x="388" y="380"/>
      <point x="341" y="165" type="curve"/>
      <point x="309" y="147"/>
      <point x="272" y="134"/>
      <point x="240" y="134" type="curve" smooth="yes"/>
      <point x="196" y="134"/>
      <point x="160" y="158"/>
      <point x="148" y="228" type="curve" smooth="yes"/>
      <point x="146" y="242"/>
      <point x="137" y="255"/>
      <point x="125" y="262" type="curve"/>
      <point x="130" y="276"/>
      <point x="134" y="283"/>
      <point x="139" y="295" type="curve"/>
      <point x="274" y="386"/>
      <point x="412" y="554"/>
      <point x="412" y="670" type="curve" smooth="yes"/>
      <point x="412" y="697"/>
      <point x="404" y="720"/>
      <point x="370" y="720" type="curve" smooth="yes"/>
      <point x="189" y="720"/>
      <point x="-66" y="17"/>
      <point x="-66" y="-186" type="curve" smooth="yes"/>
      <point x="-66" y="-265"/>
      <point x="-24" y="-280"/>
    </contour>
    <contour>
      <point x="26" y="-218" type="curve" smooth="yes"/>
      <point x="16" y="-218"/>
      <point x="11" y="-202"/>
      <point x="11" y="-175" type="curve" smooth="yes"/>
      <point x="11" y="-109"/>
      <point x="45" y="28"/>
      <point x="94" y="172" type="curve"/>
      <point x="115" y="144"/>
      <point x="119" y="103"/>
      <point x="119" y="74" type="curve" smooth="yes"/>
      <point x="119" y="-45"/>
      <point x="65" y="-218"/>
    </contour>
    <contour>
      <point x="168" y="366" type="curve"/>
      <point x="232" y="518"/>
      <point x="303" y="639"/>
      <point x="352" y="639" type="curve" smooth="yes"/>
      <point x="357" y="639"/>
      <point x="360" y="638"/>
      <point x="360" y="632" type="curve" smooth="yes"/>
      <point x="360" y="594"/>
      <point x="286" y="476"/>
    </contour>
    <contour>
      <point x="439" y="238" type="curve"/>
      <point x="496" y="420"/>
      <point x="624" y="632"/>
      <point x="647" y="626" type="curve" smooth="yes"/>
      <point x="650" y="625"/>
      <point x="649" y="617"/>
      <point x="648" y="609" type="curve" smooth="yes"/>
      <point x="633" y="490"/>
      <point x="509" y="315"/>
    </contour>
  </outline>
</glyph>
<glyph name="F.salt" format="2">
  <advance width="493"/>
  <outline>
    <contour>
      <point x="161" y="-87" type="curve"/>
      <point x="161" y="-36"/>
      <point x="172" y="41"/>
      <point x="251" y="316" type="curve"/>
      <point x="399" y="319"/>
      <point x="421" y="321"/>
      <point x="454" y="365" type="curve"/>
      <point x="385" y="365"/>
      <point x="333" y="374"/>
      <point x="270" y="379" type="curve"/>
      <point x="301" y="482"/>
      <point x="335" y="583"/>
      <point x="361" y="648" type="curve"/>
      <point x="516" y="649" type="line" smooth="yes"/>
      <point x="545" y="649"/>
      <point x="587" y="653"/>
      <point x="632" y="696" type="curve"/>
      <point x="578" y="703"/>
      <point x="446" y="720"/>
      <point x="342" y="720" type="curve" smooth="yes"/>
      <point x="197" y="720"/>
      <point x="133" y="687"/>
      <point x="123" y="627" type="curve"/>
      <point x="186" y="638"/>
      <point x="231" y="643"/>
      <point x="297" y="646" type="curve"/>
      <point x="258" y="567"/>
      <point x="223" y="480"/>
      <point x="185" y="381" type="curve"/>
      <point x="111" y="378"/>
      <point x="48" y="349"/>
      <point x="46" y="296" type="curve"/>
      <point x="113" y="306"/>
      <point x="138" y="309"/>
      <point x="158" y="311" type="curve"/>
      <point x="113" y="190"/>
      <point x="61" y="68"/>
      <point x="61" y="-1" type="curve" smooth="yes"/>
      <point x="61" y="-49"/>
      <point x="87" y="-82"/>
    </contour>
  </outline>
</glyph>
<glyph name="acutecomb.case" format="2">
  <outline>
    <contour>
      <point x="52" y="360" type="curve"/>
      <point x="80" y="397"/>
      <point x="114" y="428"/>
      <point x="161" y="473" type="curve"/>
      <point x="158" y="500"/>
      <point x="146" y="508"/>
      <point x="131" y="508" type="curve" smooth="yes"/>
      <point x="89" y="508"/>
      <point x="28" y="415"/>
      <point x="28" y="393" type="curve" smooth="yes"/>
      <point x="28" y="386"/>
      <point x="35" y="367"/>
    </contour>
  </outline>
</glyph>
<glyph name="b_r" format="2">
  <advance width="771"/>
  <outline>
    <contour>
      <point x="106" y="-73" type="curve" smooth="yes"/>
      <point x="180" y="-73"/>
      <point x="235" y="-25"/>
      <point x="273" y="35" type="curve"/>
      <point x="282" y="34"/>
      <point x="291" y="33"/>
      <point x="299" y="33" type="curve" smooth="yes"/>
      <point x="433" y="33"/>
      <point x="486" y="183"/>
      <point x="521" y="292" type="curve"/>
      <point x="546" y="276"/>
      <point x="571" y="260"/>
      <point x="571" y="227" type="curve" smooth="yes"/>
      <point x="571" y="179"/>
      <point x="517" y="102"/>
      <point x="517" y="46" type="curve" smooth="yes"/>
      <point x="517" y="1"/>
      <point x="552" y="-27"/>
      <point x="601" y="-27" type="curve" smooth="yes"/>
      <point x="693" y="-27"/>
      <point x="773" y="74"/>
      <point x="814" y="162" type="curve"/>
      <point x="796" y="174" type="line"/>
      <point x="769" y="116"/>
      <point x="691" y="23"/>
      <point x="627" y="23" type="curve" smooth="yes"/>
      <point x="613" y="23"/>
      <point x="602" y="27"/>
      <point x="602" y="45" type="curve" smooth="yes"/>
      <point x="602" y="84"/>
      <point x="651" y="151"/>
      <point x="651" y="210" type="curve" smooth="yes"/>
      <point x="651" y="297"/>
      <point x="542.0" y="321"/>
      <point x="542" y="346" type="curve" smooth="yes"/>
      <point x="542" y="354"/>
      <point x="553" y="373"/>
      <point x="553" y="384" type="curve" smooth="yes"/>
      <point x="553" y="390"/>
      <point x="550" y="415"/>
      <point x="533" y="415" type="curve" smooth="yes"/>
      <point x="512" y="415"/>
      <point x="483" y="378"/>
      <point x="483" y="340" type="curve" smooth="yes"/>
      <point x="483" y="328"/>
      <point x="486" y="321"/>
      <point x="492" y="315" type="curve"/>
      <point x="462" y="226"/>
      <point x="409" y="69"/>
      <point x="303" y="69" type="curve" smooth="yes"/>
      <point x="299" y="69"/>
      <point x="296" y="69"/>
      <point x="292" y="70" type="curve"/>
      <point x="311" y="112"/>
      <point x="319" y="154"/>
      <point x="319" y="190" type="curve" smooth="yes"/>
      <point x="319" y="261"/>
      <point x="288" y="292"/>
      <point x="245" y="292" type="curve" smooth="yes"/>
      <point x="193" y="292"/>
      <point x="154" y="247"/>
      <point x="154" y="183" type="curve" smooth="yes"/>
      <point x="154" y="130"/>
      <point x="180" y="78"/>
      <point x="229" y="51" type="curve"/>
      <point x="204" y="9"/>
      <point x="161" y="-21"/>
      <point x="126" y="-21" type="curve" smooth="yes"/>
      <point x="87" y="-21"/>
      <point x="72" y="15"/>
      <point x="72" y="69" type="curve" smooth="yes"/>
      <point x="72" y="146"/>
      <point x="103" y="240"/>
      <point x="117" y="266" type="curve"/>
      <point x="241" y="337"/>
      <point x="349" y="552"/>
      <point x="349" y="643" type="curve" smooth="yes"/>
      <point x="349" y="676"/>
      <point x="335" y="714"/>
      <point x="309" y="714" type="curve" smooth="yes"/>
      <point x="217" y="714"/>
      <point x="-10" y="258"/>
      <point x="-10" y="60" type="curve" smooth="yes"/>
      <point x="-10" y="-23"/>
      <point x="30" y="-73"/>
    </contour>
    <contour>
      <point x="246" y="84" type="curve"/>
      <point x="215" y="106"/>
      <point x="203" y="145"/>
      <point x="203" y="177" type="curve" smooth="yes"/>
      <point x="203" y="211"/>
      <point x="217" y="239"/>
      <point x="235" y="239" type="curve" smooth="yes"/>
      <point x="253" y="239"/>
      <point x="264" y="210"/>
      <point x="264" y="169" type="curve" smooth="yes"/>
      <point x="264" y="136"/>
      <point x="257" y="109"/>
    </contour>
    <contour>
      <point x="136" y="329" type="curve"/>
      <point x="181" y="468"/>
      <point x="274" y="616"/>
      <point x="299" y="621" type="curve" smooth="yes"/>
      <point x="302" y="622"/>
      <point x="301" y="614"/>
      <point x="300" y="610" type="curve" smooth="yes"/>
      <point x="291" y="553"/>
      <point x="217" y="404"/>
    </contour>
  </outline>
</glyph>
<glyph name="brevecomb.case" format="2">
  <outline>
    <contour>
      <point x="78" y="370" type="curve" smooth="yes"/>
      <point x="134" y="370"/>
      <point x="185" y="404"/>
      <point x="185" y="450" type="curve" smooth="yes"/>
      <point x="185" y="460"/>
      <point x="182" y="474"/>
      <point x="171" y="483" type="curve"/>
      <point x="156" y="460"/>
      <point x="128" y="434"/>
      <point x="80" y="434" type="curve" smooth="yes"/>
      <point x="25" y="434"/>
      <point x="1" y="475"/>
      <point x="-6" y="514" type="curve"/>
      <point x="-23" y="504"/>
      <point x="-34" y="489"/>
      <point x="-34" y="465" type="curve" smooth="yes"/>
      <point x="-34" y="427"/>
      <point x="-5" y="370"/>
    </contour>
  </outline>
</glyph>
<glyph name="breveinvertedcomb.case" format="2">
  <outline>
    <contour>
      <point x="138" y="346" type="curve"/>
      <point x="156" y="356"/>
      <point x="166" y="371"/>
      <point x="166" y="395" type="curve" smooth="yes"/>
      <point x="166" y="433"/>
      <point x="137" y="490"/>
      <point x="54" y="490" type="curve" smooth="yes"/>
      <point x="-2" y="490"/>
      <point x="-53" y="456"/>
      <point x="-53" y="410" type="curve" smooth="yes"/>
      <point x="-53" y="400"/>
      <point x="-50" y="386"/>
      <point x="-39" y="377" type="curve"/>
      <point x="-24" y="400"/>
      <point x="4" y="426"/>
      <point x="52" y="426" type="curve" smooth="yes"/>
      <point x="107" y="426"/>
      <point x="131" y="385"/>
    </contour>
  </outline>
</glyph>
<glyph name="circumflexcomb.case" format="2">
  <outline>
    <contour>
      <point x="142" y="356" type="curve"/>
      <point x="160" y="365"/>
      <point x="167" y="381"/>
      <point x="167" y="395" type="curve" smooth="yes"/>
      <point x="167" y="436"/>
      <point x="103" y="501"/>
      <point x="71" y="501" type="curve" smooth="yes"/>
      <point x="42" y="501"/>
      <point x="-45" y="454"/>
      <point x="-45" y="415" type="curve" smooth="yes"/>
      <point x="-45" y="408"/>
      <point x="-42" y="393"/>
      <point x="-32" y="387" type="curve"/>
      <point x="3" y="410"/>
      <point x="34" y="427"/>
      <point x="70" y="439" type="curve"/>
      <point x="98" y="414"/>
      <point x="121" y="392"/>
    </contour>
  </outline>
</glyph>
<glyph name="circumflexcomb_acutecomb" format="2">
  <outline>
    <contour>
      <point x="191" y="454" type="curve"/>
      <point x="216" y="484"/>
      <point x="266" y="533"/>
      <point x="289" y="552" type="curve"/>
      <point x="286" y="579"/>
      <point x="274" y="587"/>
      <point x="259" y="587" type="curve" smooth="yes"/>
      <point x="221" y="587"/>
      <point x="167" y="512"/>
      <point x="167" y="487" type="curve" smooth="yes"/>
      <point x="167" y="474"/>
      <point x="174" y="461"/>
    </contour>
    <component base="circumflexcomb.case"/>
  </outline>
</glyph>
<glyph name="circumflexcomb_gravecomb" format="2">
  <outline>
    <contour>
      <point x="199" y="451" type="curve"/>
      <point x="214" y="456"/>
      <point x="222" y="467"/>
      <point x="222" y="480" type="curve" smooth="yes"/>
      <point x="222" y="505"/>
      <point x="181" y="588"/>
      <point x="143" y="588" type="curve" smooth="yes"/>
      <point x="128" y="588"/>
      <point x="118" y="581"/>
      <point x="113" y="560" type="curve"/>
      <point x="134" y="538"/>
      <point x="178" y="484"/>
    </contour>
    <component base="circumflexcomb.case"/>
  </outline>
</glyph>
<glyph name="circumflexcomb_hookabovecomb" format="2">
  <outline>
    <contour>
      <point x="212" y="446" type="curve" smooth="yes"/>
      <point x="246" y="446"/>
      <point x="270" y="472"/>
      <point x="270" y="509" type="curve" smooth="yes"/>
      <point x="270" y="555"/>
      <point x="237" y="591"/>
      <point x="192" y="591" type="curve" smooth="yes"/>
      <point x="153" y="591"/>
      <point x="135" y="567"/>
      <point x="135" y="538" type="curve"/>
      <point x="199" y="538"/>
      <point x="227" y="523"/>
      <point x="227" y="495" type="curve" smooth="yes"/>
      <point x="227" y="474"/>
      <point x="209" y="461"/>
      <point x="179" y="454" type="curve"/>
      <point x="187" y="450"/>
      <point x="198" y="446"/>
    </contour>
    <component base="circumflexcomb.case"/>
  </outline>
</glyph>
<glyph name="dblgravecomb.case" format="2">
  <outline>
    <contour>
      <point x="11" y="365" type="curve"/>
      <point x="23" y="371"/>
      <point x="29" y="383"/>
      <point x="29" y="395" type="curve" smooth="yes"/>
      <point x="29" y="418"/>
      <point x="-19" y="509"/>
      <point x="-54" y="509" type="curve" smooth="yes"/>
      <point x="-70" y="509"/>
      <point x="-81" y="500"/>
      <point x="-92" y="490" type="curve"/>
      <point x="-52" y="446"/>
      <point x="-18" y="404"/>
    </contour>
    <contour>
      <point x="83" y="366" type="curve"/>
      <point x="95" y="368"/>
      <point x="108" y="377"/>
      <point x="108" y="401" type="curve" smooth="yes"/>
      <point x="108" y="430"/>
      <point x="81" y="506"/>
      <point x="43" y="506" type="curve" smooth="yes"/>
      <point x="27" y="506"/>
      <point x="16" y="495"/>
      <point x="9" y="480" type="curve"/>
      <point x="39" y="442"/>
      <point x="64" y="401"/>
    </contour>
  </outline>
</glyph>
<glyph name="e_e" format="2">
  <advance width="682"/>
  <outline>
    <contour>
      <point x="458" y="-49" type="curve" smooth="yes"/>
      <point x="565" y="-49"/>
      <point x="671" y="38"/>
      <point x="726" y="158" type="curve"/>
      <point x="708" y="172" type="line"/>
      <point x="659" y="78"/>
      <point x="564" y="-6"/>
      <point x="479" y="-6" type="curve" smooth="yes"/>
      <point x="415" y="-6"/>
      <point x="404" y="42"/>
      <point x="404" y="77" type="curve" smooth="yes"/>
      <point x="404" y="87"/>
      <point x="405" y="94"/>
      <point x="406" y="101" type="curve"/>
      <point x="527" y="114"/>
      <point x="645" y="181"/>
      <point x="645" y="280" type="curve" smooth="yes"/>
      <point x="645" y="334"/>
      <point x="609" y="347"/>
      <point x="573" y="347" type="curve" smooth="yes"/>
      <point x="464" y="347"/>
      <point x="354" y="228"/>
      <point x="331" y="120" type="curve"/>
      <point x="280" y="51"/>
      <point x="209" y="-1"/>
      <point x="139" y="-1" type="curve" smooth="yes"/>
      <point x="73" y="-1"/>
      <point x="61" y="44"/>
      <point x="61" y="80" type="curve" smooth="yes"/>
      <point x="61" y="90"/>
      <point x="62" y="99"/>
      <point x="63" y="105" type="curve"/>
      <point x="183" y="118"/>
      <point x="315" y="194"/>
      <point x="315" y="294" type="curve" smooth="yes"/>
      <point x="315" y="347"/>
      <point x="279" y="360"/>
      <point x="244" y="360" type="curve" smooth="yes"/>
      <point x="117" y="360"/>
      <point x="-17" y="192"/>
      <point x="-17" y="76" type="curve" smooth="yes"/>
      <point x="-17" y="8"/>
      <point x="30" y="-44"/>
      <point x="117" y="-44" type="curve" smooth="yes"/>
      <point x="192" y="-44"/>
      <point x="268" y="-5"/>
      <point x="326" y="62" type="curve"/>
      <point x="333" y="1"/>
      <point x="377" y="-49"/>
    </contour>
    <contour>
      <point x="74" y="137" type="curve"/>
      <point x="103" y="223"/>
      <point x="183" y="315"/>
      <point x="240" y="315" type="curve" smooth="yes"/>
      <point x="255" y="315"/>
      <point x="258" y="309"/>
      <point x="258" y="298" type="curve" smooth="yes"/>
      <point x="258" y="228"/>
      <point x="148" y="164"/>
    </contour>
    <contour>
      <point x="417" y="137" type="curve"/>
      <point x="444" y="222"/>
      <point x="513" y="302"/>
      <point x="569" y="302" type="curve" smooth="yes"/>
      <point x="583" y="302"/>
      <point x="588" y="297"/>
      <point x="588" y="281" type="curve" smooth="yes"/>
      <point x="588" y="210"/>
      <point x="485" y="161"/>
    </contour>
  </outline>
</glyph>
<glyph name="eng.calt" format="2">
  <advance width="474"/>
  <outline>
    <contour>
      <point x="96" y="-280" type="curve" smooth="yes"/>
      <point x="240" y="-280"/>
      <point x="373" y="-12"/>
      <point x="373" y="192" type="curve" smooth="yes"/>
      <point x="373" y="245"/>
      <point x="346" y="292"/>
      <point x="289" y="292" type="curve" smooth="yes"/>
      <point x="221" y="292"/>
      <point x="152" y="225"/>
      <point x="100" y="156" type="curve"/>
      <point x="111" y="196"/>
      <point x="117" y="229"/>
      <point x="117" y="245" type="curve" smooth="yes"/>
      <point x="117" y="264"/>
      <point x="104" y="275"/>
      <point x="82" y="275" type="curve" smooth="yes"/>
      <point x="61" y="275"/>
      <point x="39" y="261"/>
      <point x="30" y="251" type="curve"/>
      <point x="30" y="165"/>
      <point x="-35" y="28"/>
      <point x="-38" y="14" type="curve"/>
      <point x="-22" y="-7"/>
      <point x="2" y="-15"/>
      <point x="27" y="-15" type="curve"/>
      <point x="78" y="69"/>
      <point x="169" y="220"/>
      <point x="250" y="220" type="curve" smooth="yes"/>
      <point x="274" y="220"/>
      <point x="285" y="204"/>
      <point x="285" y="172" type="curve" smooth="yes"/>
      <point x="285" y="-15"/>
      <point x="181" y="-232"/>
      <point x="92" y="-232" type="curve" smooth="yes"/>
      <point x="77" y="-232"/>
      <point x="70" y="-224"/>
      <point x="70" y="-208" type="curve" smooth="yes"/>
      <point x="70" y="-156"/>
      <point x="139" y="-105"/>
      <point x="267" y="-48" type="curve" smooth="yes"/>
      <point x="384" y="4"/>
      <point x="462" y="52"/>
      <point x="514" y="145" type="curve"/>
      <point x="496" y="157" type="line"/>
      <point x="440" y="76"/>
      <point x="379" y="37"/>
      <point x="261" y="-13" type="curve" smooth="yes"/>
      <point x="119" y="-73"/>
      <point x="30" y="-131"/>
      <point x="30" y="-215" type="curve" smooth="yes"/>
      <point x="30" y="-252"/>
      <point x="53" y="-280"/>
    </contour>
  </outline>
</glyph>
<glyph name="gravecomb.case" format="2">
  <outline>
    <contour>
      <point x="45" y="360" type="curve"/>
      <point x="61" y="367"/>
      <point x="70" y="386"/>
      <point x="70" y="396" type="curve" smooth="yes"/>
      <point x="70" y="421"/>
      <point x="1" y="509"/>
      <point x="-40" y="509" type="curve" smooth="yes"/>
      <point x="-55" y="509"/>
      <point x="-70" y="497"/>
      <point x="-72" y="470" type="curve"/>
      <point x="-18" y="429"/>
      <point x="14" y="397"/>
    </contour>
  </outline>
</glyph>
<glyph name="hookabovecomb.case" format="2">
  <outline>
    <contour>
      <point x="55" y="368" type="curve" smooth="yes"/>
      <point x="99" y="368"/>
      <point x="129" y="397"/>
      <point x="129" y="439" type="curve" smooth="yes"/>
      <point x="129" y="482"/>
      <point x="96" y="516"/>
      <point x="51" y="516" type="curve" smooth="yes"/>
      <point x="12" y="516"/>
      <point x="-6" y="492"/>
      <point x="-6" y="463" type="curve"/>
      <point x="58" y="463"/>
      <point x="86" y="452"/>
      <point x="86" y="426" type="curve" smooth="yes"/>
      <point x="86" y="397"/>
      <point x="55" y="385"/>
      <point x="20" y="379" type="curve"/>
      <point x="28" y="373"/>
      <point x="40" y="368"/>
    </contour>
  </outline>
</glyph>
<glyph name="o_r" format="2">
  <advance width="746"/>
  <anchor x="458" y="0" name="bottom"/>
  <anchor x="642" y="404" name="top"/>
  <outline>
    <contour>
      <point x="79" y="-32" type="curve" smooth="yes"/>
      <point x="131" y="-32"/>
      <point x="189" y="10"/>
      <point x="236" y="68" type="curve"/>
      <point x="251" y="62"/>
      <point x="267" y="59"/>
      <point x="284" y="59" type="curve" smooth="yes"/>
      <point x="412" y="59"/>
      <point x="455" y="193"/>
      <point x="488" y="290" type="curve"/>
      <point x="513" y="277"/>
      <point x="541" y="256"/>
      <point x="541" y="221" type="curve" smooth="yes"/>
      <point x="541" y="173"/>
      <point x="489" y="102"/>
      <point x="489" y="44" type="curve" smooth="yes"/>
      <point x="489" y="2"/>
      <point x="523" y="-27"/>
      <point x="573" y="-27" type="curve" smooth="yes"/>
      <point x="663" y="-27"/>
      <point x="747" y="70"/>
      <point x="787" y="156" type="curve"/>
      <point x="767" y="170" type="line"/>
      <point x="742" y="113"/>
      <point x="660" y="23"/>
      <point x="598" y="23" type="curve" smooth="yes"/>
      <point x="584" y="23"/>
      <point x="573" y="27"/>
      <point x="573" y="47" type="curve" smooth="yes"/>
      <point x="573" y="85"/>
      <point x="621" y="148"/>
      <point x="621" y="208" type="curve" smooth="yes"/>
      <point x="621" y="294"/>
      <point x="513" y="314"/>
      <point x="513" y="342" type="curve" smooth="yes"/>
      <point x="513" y="348"/>
      <point x="524" y="371"/>
      <point x="524" y="378" type="curve" smooth="yes"/>
      <point x="524" y="387"/>
      <point x="523" y="409"/>
      <point x="502" y="409" type="curve" smooth="yes"/>
      <point x="488" y="409"/>
      <point x="454" y="378"/>
      <point x="454" y="335" type="curve" smooth="yes"/>
      <point x="454" y="325"/>
      <point x="458" y="316"/>
      <point x="463" y="310" type="curve"/>
      <point x="435" y="220"/>
      <point x="393" y="97"/>
      <point x="290" y="97" type="curve" smooth="yes"/>
      <point x="279" y="97"/>
      <point x="270" y="100"/>
      <point x="261" y="103" type="curve"/>
      <point x="299" y="159"/>
      <point x="323" y="221"/>
      <point x="323" y="272" type="curve" smooth="yes"/>
      <point x="323" y="318"/>
      <point x="303" y="353"/>
      <point x="244" y="353" type="curve" smooth="yes"/>
      <point x="182" y="353"/>
      <point x="147" y="305"/>
      <point x="140" y="247" type="curve"/>
      <point x="127" y="252"/>
      <point x="117" y="255"/>
      <point x="110" y="255" type="curve" smooth="yes"/>
      <point x="47" y="255"/>
      <point x="-11" y="145"/>
      <point x="-11" y="63" type="curve" smooth="yes"/>
      <point x="-11" y="10"/>
      <point x="17" y="-32"/>
    </contour>
    <contour>
      <point x="99" y="18" type="curve" smooth="yes"/>
      <point x="80" y="18"/>
      <point x="67" y="35"/>
      <point x="67" y="71" type="curve" smooth="yes"/>
      <point x="67" y="115"/>
      <point x="111" y="208"/>
      <point x="139" y="239" type="curve"/>
      <point x="140" y="173"/>
      <point x="159" y="124"/>
      <point x="200" y="91" type="curve"/>
      <point x="165" y="50"/>
      <point x="125" y="18"/>
    </contour>
    <contour>
      <point x="230" y="128" type="curve"/>
      <point x="211" y="153"/>
      <point x="194" y="191"/>
      <point x="194" y="223" type="curve" smooth="yes"/>
      <point x="194" y="275"/>
      <point x="226" y="312"/>
      <point x="252" y="312" type="curve" smooth="yes"/>
      <point x="264" y="312"/>
      <point x="278" y="298"/>
      <point x="278" y="266" type="curve" smooth="yes"/>
      <point x="278" y="223"/>
      <point x="261" y="173"/>
    </contour>
  </outline>
</glyph>
<glyph name="r.init" format="2">
  <advance width="369"/>
  <outline>
    <contour>
      <point x="199" y="-26" type="curve" smooth="yes"/>
      <point x="289" y="-26"/>
      <point x="373" y="68"/>
      <point x="412" y="155" type="curve"/>
      <point x="394" y="172" type="line"/>
      <point x="369" y="115"/>
      <point x="288" y="24"/>
      <point x="225" y="24" type="curve" smooth="yes"/>
      <point x="212" y="24"/>
      <point x="200" y="28"/>
      <point x="200" y="47" type="curve" smooth="yes"/>
      <point x="200" y="85"/>
      <point x="248" y="149"/>
      <point x="248" y="207" type="curve" smooth="yes"/>
      <point x="248" y="294"/>
      <point x="140" y="317"/>
      <point x="140" y="343" type="curve" smooth="yes"/>
      <point x="140" y="352"/>
      <point x="151" y="366"/>
      <point x="151" y="384" type="curve" smooth="yes"/>
      <point x="151" y="393"/>
      <point x="148" y="409"/>
      <point x="133" y="409" type="curve" smooth="yes"/>
      <point x="110" y="409"/>
      <point x="81" y="373"/>
      <point x="81" y="338" type="curve" smooth="yes"/>
      <point x="81" y="325"/>
      <point x="85" y="317"/>
      <point x="91" y="311" type="curve"/>
      <point x="53" y="183"/>
      <point x="-16" y="35"/>
      <point x="-46" y="0" type="curve"/>
      <point x="-28" y="-19" type="line"/>
      <point x="6" y="19"/>
      <point x="75" y="155"/>
      <point x="119" y="288" type="curve"/>
      <point x="146" y="274"/>
      <point x="169" y="255"/>
      <point x="169" y="224" type="curve" smooth="yes"/>
      <point x="169" y="177"/>
      <point x="116" y="101"/>
      <point x="116" y="46" type="curve" smooth="yes"/>
      <point x="116" y="2"/>
      <point x="150" y="-26"/>
    </contour>
  </outline>
</glyph>
<glyph name="tildecomb.case" format="2">
  <outline>
    <contour>
      <point x="125" y="367" type="curve" smooth="yes"/>
      <point x="166" y="367"/>
      <point x="190" y="387"/>
      <point x="209" y="423" type="curve"/>
      <point x="189" y="416"/>
      <point x="169" y="413"/>
      <point x="150" y="413" type="curve" smooth="yes"/>
      <point x="95" y="413"/>
      <point x="33" y="461"/>
      <point x="-23" y="461" type="curve" smooth="yes"/>
      <point x="-66" y="461"/>
      <point x="-97" y="442"/>
      <point x="-113" y="402" type="curve"/>
      <point x="-90" y="412"/>
      <point x="-71" y="415"/>
      <point x="-48" y="415" type="curve" smooth="yes"/>
      <point x="4" y="415"/>
      <point x="69" y="367"/>
    </contour>
  </outline>
</glyph>
<glyph name="v_r" format="2">
  <advance width="776"/>
  <outline>
    <contour>
      <point x="73" y="-39" type="curve" smooth="yes"/>
      <point x="139" y="-39"/>
      <point x="215" y="53"/>
      <point x="266" y="145" type="curve"/>
      <point x="280" y="111"/>
      <point x="315" y="87"/>
      <point x="357" y="87" type="curve" smooth="yes"/>
      <point x="451" y="87"/>
      <point x="496" y="205"/>
      <point x="525" y="287" type="curve"/>
      <point x="552" y="273"/>
      <point x="575" y="254"/>
      <point x="575" y="223" type="curve" smooth="yes"/>
      <point x="575" y="176"/>
      <point x="522" y="100"/>
      <point x="522" y="45" type="curve" smooth="yes"/>
      <point x="522" y="2"/>
      <point x="555" y="-27"/>
      <point x="605" y="-27" type="curve" smooth="yes"/>
      <point x="697" y="-27"/>
      <point x="779" y="74"/>
      <point x="818" y="161" type="curve"/>
      <point x="800" y="172" type="line"/>
      <point x="772" y="115"/>
      <point x="694" y="23"/>
      <point x="631" y="23" type="curve" smooth="yes"/>
      <point x="618" y="23"/>
      <point x="606" y="27"/>
      <point x="606" y="45" type="curve" smooth="yes"/>
      <point x="606" y="82"/>
      <point x="654" y="144"/>
      <point x="654" y="203" type="curve" smooth="yes"/>
      <point x="654" y="292"/>
      <point x="546" y="315"/>
      <point x="546" y="343" type="curve" smooth="yes"/>
      <point x="546" y="351"/>
      <point x="556" y="375"/>
      <point x="556" y="390" type="curve" smooth="yes"/>
      <point x="556" y="401"/>
      <point x="550" y="409"/>
      <point x="538" y="409" type="curve" smooth="yes"/>
      <point x="513" y="409"/>
      <point x="488" y="370"/>
      <point x="488" y="336" type="curve" smooth="yes"/>
      <point x="488" y="323"/>
      <point x="492" y="316"/>
      <point x="496" y="310" type="curve"/>
      <point x="470" y="233"/>
      <point x="431" y="126"/>
      <point x="365" y="126" type="curve" smooth="yes"/>
      <point x="336" y="126"/>
      <point x="324" y="147"/>
      <point x="324" y="176" type="curve" smooth="yes"/>
      <point x="324" y="221"/>
      <point x="352" y="290"/>
      <point x="352" y="290" type="curve"/>
      <point x="351" y="306"/>
      <point x="338" y="334"/>
      <point x="306" y="334" type="curve" smooth="yes"/>
      <point x="278" y="334"/>
      <point x="257" y="312"/>
      <point x="256" y="220" type="curve"/>
      <point x="215" y="132"/>
      <point x="143" y="13"/>
      <point x="98" y="13" type="curve" smooth="yes"/>
      <point x="84" y="13"/>
      <point x="78" y="24"/>
      <point x="78" y="64" type="curve" smooth="yes"/>
      <point x="78" y="104"/>
      <point x="84" y="176"/>
      <point x="84" y="214" type="curve" smooth="yes"/>
      <point x="84" y="245"/>
      <point x="80" y="254"/>
      <point x="50" y="254" type="curve" smooth="yes"/>
      <point x="14" y="254"/>
      <point x="13" y="241"/>
      <point x="11" y="202" type="curve" smooth="yes"/>
      <point x="9" y="152"/>
      <point x="8" y="102"/>
      <point x="8" y="84" type="curve" smooth="yes"/>
      <point x="8" y="13"/>
      <point x="23" y="-39"/>
    </contour>
  </outline>
</glyph>
<glyph name="w_r" format="2">
  <advance width="996"/>
  <outline>
    <contour>
      <point x="296" y="-39" type="curve" smooth="yes"/>
      <point x="364" y="-39"/>
      <point x="439" y="63"/>
      <point x="491" y="153" type="curve"/>
      <point x="508" y="116"/>
      <point x="541" y="95"/>
      <point x="578" y="95" type="curve" smooth="yes"/>
      <point x="665" y="95"/>
      <point x="713" y="208"/>
      <point x="743" y="287" type="curve"/>
      <point x="766" y="276"/>
      <point x="792" y="256"/>
      <point x="792" y="222" type="curve" smooth="yes"/>
      <point x="792" y="173"/>
      <point x="740" y="100"/>
      <point x="740" y="45" type="curve" smooth="yes"/>
      <point x="740" y="1"/>
      <point x="774" y="-27"/>
      <point x="823" y="-27" type="curve" smooth="yes"/>
      <point x="913" y="-27"/>
      <point x="1001" y="70"/>
      <point x="1039" y="157" type="curve"/>
      <point x="1017" y="171" type="line"/>
      <point x="994" y="114"/>
      <point x="911" y="23"/>
      <point x="848" y="23" type="curve" smooth="yes"/>
      <point x="835" y="23"/>
      <point x="824" y="27"/>
      <point x="824" y="46" type="curve" smooth="yes"/>
      <point x="824" y="86"/>
      <point x="872" y="149"/>
      <point x="872" y="207" type="curve" smooth="yes"/>
      <point x="872" y="294"/>
      <point x="763" y="314"/>
      <point x="763" y="342" type="curve" smooth="yes"/>
      <point x="763" y="352"/>
      <point x="775" y="367"/>
      <point x="775" y="379" type="curve" smooth="yes"/>
      <point x="775" y="383"/>
      <point x="774" y="409"/>
      <point x="756" y="409" type="curve" smooth="yes"/>
      <point x="734" y="409"/>
      <point x="705" y="373"/>
      <point x="705" y="338" type="curve" smooth="yes"/>
      <point x="705" y="325"/>
      <point x="709" y="317"/>
      <point x="714" y="310" type="curve"/>
      <point x="687" y="236"/>
      <point x="650" y="136"/>
      <point x="585" y="136" type="curve" smooth="yes"/>
      <point x="556" y="136"/>
      <point x="542" y="156"/>
      <point x="542" y="190" type="curve" smooth="yes"/>
      <point x="542" y="229"/>
      <point x="561" y="276"/>
      <point x="570" y="289" type="curve"/>
      <point x="569" y="306"/>
      <point x="555" y="334"/>
      <point x="525" y="334" type="curve" smooth="yes"/>
      <point x="493" y="334"/>
      <point x="477" y="332"/>
      <point x="477" y="225" type="curve"/>
      <point x="434" y="134"/>
      <point x="358" y="13"/>
      <point x="321" y="13" type="curve" smooth="yes"/>
      <point x="306" y="13"/>
      <point x="303" y="33"/>
      <point x="303" y="66" type="curve" smooth="yes"/>
      <point x="303" y="141"/>
      <point x="319" y="223"/>
      <point x="330" y="266" type="curve"/>
      <point x="324" y="286"/>
      <point x="311" y="290"/>
      <point x="289" y="290" type="curve" smooth="yes"/>
      <point x="266" y="290"/>
      <point x="263" y="286"/>
      <point x="247" y="203" type="curve"/>
      <point x="203" y="117"/>
      <point x="145" y="23"/>
      <point x="103" y="23" type="curve" smooth="yes"/>
      <point x="75" y="23"/>
      <point x="71" y="66"/>
      <point x="71" y="83" type="curve" smooth="yes"/>
      <point x="71" y="138"/>
      <point x="113" y="236"/>
      <point x="136" y="272" type="curve"/>
      <point x="136" y="290"/>
      <point x="100" y="301"/>
      <point x="91" y="301" type="curve" smooth="yes"/>
      <point x="58" y="301"/>
      <point x="0" y="152"/>
      <point x="0" y="76" type="curve" smooth="yes"/>
      <point x="0" y="17"/>
      <point x="36" y="-30"/>
      <point x="83" y="-30" type="curve" smooth="yes"/>
      <point x="145" y="-30"/>
      <point x="195" y="50"/>
      <point x="237" y="127" type="curve"/>
      <point x="236" y="108"/>
      <point x="234" y="96"/>
      <point x="234" y="73" type="curve" smooth="yes"/>
      <point x="234" y="6"/>
      <point x="251" y="-39"/>
    </contour>
  </outline>
</glyph>
